<?xml version="1.0" encoding="utf-8"?>
<!-- Generator: Adobe Illustrator 16.0.0, SVG Export Plug-In . SVG Version: 6.00 Build 0)  -->
<!DOCTYPE svg PUBLIC "-//W3C//DTD SVG 1.1//EN" "http://www.w3.org/Graphics/SVG/1.1/DTD/svg11.dtd">
<svg version="1.1" id="Capa_1" xmlns="http://www.w3.org/2000/svg" xmlns:xlink="http://www.w3.org/1999/xlink" x="0px" y="0px"
	 width="477px" height="157px" viewBox="0 0 477 157" enable-background="new 0 0 477 157" xml:space="preserve">
<path fill="#054D87" d="M46.436,141.8v-6.582c0,0,10.327,2.451,9.68-4.391c0,0,8.648,2.95,5.293-4.332c0,0,20.32,17.5,38.557,2.655
	c0,0,4.168,7.616,14.881-1.679c1.678-1.29,6.066-6.324,6.066-6.324s5.035,2.323,0.904-11.617c0.258-0.646,4.259,4.259,4.259,4.259
	s4.001,3.099,2.195-8.26c0,0,3.743,1.031,4,6.841c0,0,1.033,4.001,4.518-0.13c1.444-1.691,1.827-2.892,3.233-1.143
	c0.383,0.729,0.511,1.24-1.277,2.772c-0.896,1.406-3.067,4.602-2.173,6.518c1.022,1.022,3.451,1.534,6.006-0.511
	c0,0,1.661,2.886,0.895,6.618c0,0,5.494-3.424,2.427,3.093c-0.766,1.405-3.833,5.367,9.33,6.261v6.901L46.436,141.8z"/>
<g>
	<circle fill="#FFCE00" cx="99.646" cy="74.117" r="37.184"/>
	<g>
		<path fill="#FFCE00" d="M97.95,35.334h3.646c0,0-1.569-3.241-1.265-6.178c0.303-2.938,2.077-6.079,2.077-6.079
			s1.924-3.848,2.329-5.571c0.405-1.723,0.557-3.494-1.722-6.179c0,0,0.558,3.14-0.151,5.267c-0.709,2.127-1.874,4.558-2.988,6.736
			C98.759,25.509,97.089,29.712,97.95,35.334z"/>
		<polygon fill="#FFCE00" points="107.176,35.967 104.771,35.521 108.914,25.542 		"/>
	</g>
	<g>
		<path fill="#FFCE00" d="M84.75,38.217l3.424-1.254c0,0-2.589-2.504-3.313-5.367c-0.726-2.861-0.141-6.42-0.141-6.42
			s0.483-4.276,0.272-6.033c-0.212-1.757-0.68-3.473-3.742-5.21c0,0,1.603,2.757,1.669,4.998c0.065,2.241-0.192,4.925-0.49,7.353
			C82.132,28.713,82.008,33.234,84.75,38.217z"/>
		<polygon fill="#FFCE00" points="93.632,35.636 91.219,36.045 91.678,25.25 		"/>
	</g>
	<g>
		<path fill="#FFCE00" d="M73.226,45.274l2.766-2.376c0,0-3.302-1.437-4.986-3.864c-1.683-2.426-2.384-5.962-2.384-5.962
			s-1.047-4.176-1.861-5.745c-0.814-1.571-1.854-3.015-5.332-3.566c0,0,2.468,2.019,3.316,4.094c0.848,2.076,1.547,4.68,2.121,7.058
			C67.44,37.291,68.911,41.569,73.226,45.274z"/>
		<polygon fill="#FFCE00" points="80.638,39.742 78.523,40.972 75.165,30.701 		"/>
	</g>
	<g>
		<path fill="#FFCE00" d="M64.748,55.815l1.841-3.148c0,0-3.59-0.279-5.975-2.024c-2.382-1.744-4.199-4.858-4.199-4.858
			s-2.352-3.604-3.634-4.823s-2.736-2.245-6.204-1.631c0,0,2.993,1.104,4.472,2.788c1.479,1.686,2.989,3.919,4.308,5.979
			C56.674,50.158,59.46,53.722,64.748,55.815z"/>
		<polygon fill="#FFCE00" points="69.95,48.168 68.352,50.02 61.827,41.408 		"/>
	</g>
	<g>
		<path fill="#FFCE00" d="M60.613,68.82l0.65-3.588c0,0-3.469,0.967-6.306,0.146c-2.836-0.822-5.61-3.126-5.61-3.126
			s-3.445-2.579-5.066-3.284c-1.623-0.705-3.34-1.17-6.388,0.594c0,0,3.19,0.012,5.157,1.088c1.967,1.076,4.152,2.655,6.097,4.141
			C51.09,66.273,54.928,68.667,60.613,68.82z"/>
		<polygon fill="#FFCE00" points="62.878,59.854 62.012,62.142 52.931,56.288 		"/>
	</g>
	<g>
		<path fill="#FFCE00" d="M61.011,82.241l-0.595-3.598c0,0-2.942,2.078-5.89,2.257c-2.948,0.181-6.336-1.056-6.336-1.056
			s-4.11-1.271-5.876-1.39c-1.765-0.118-3.539,0.022-5.815,2.708c0,0,3.007-1.062,5.222-0.71c2.214,0.354,4.803,1.104,7.133,1.849
			C51.186,83.045,55.605,84.007,61.011,82.241z"/>
		<polygon fill="#FFCE00" points="60.127,73.034 60.081,75.479 49.56,73.021 		"/>
	</g>
	<g>
		<path fill="#FFCE00" d="M65.817,94.534l-1.788-3.178c0,0-2.054,2.958-4.765,4.134c-2.708,1.175-6.313,1.17-6.313,1.17
			s-4.299,0.21-5.999,0.701s-3.319,1.229-4.541,4.531c0,0,2.463-2.025,4.665-2.451c2.201-0.425,4.891-0.602,7.335-0.698
			C56.857,98.646,61.339,98.041,65.817,94.534z"/>
		<polygon fill="#FFCE00" points="61.842,86.183 62.633,88.498 51.906,89.781 		"/>
	</g>
	<g>
		<path fill="#FFCE00" d="M75.083,104.934l-2.752-2.392c0,0-0.94,3.478-3.096,5.496c-2.155,2.019-5.552,3.228-5.552,3.228
			s-3.978,1.644-5.413,2.679c-1.436,1.035-2.712,2.273-2.751,5.794c0,0,1.639-2.736,3.569-3.876c1.93-1.142,4.403-2.214,6.672-3.127
			C68.029,111.82,72.046,109.743,75.083,104.934z"/>
		<polygon fill="#FFCE00" points="68.529,98.407 70.054,100.319 60.383,105.138 		"/>
	</g>
	<g>
		<path fill="#FFCE00" d="M87.258,110.909l-3.401-1.314c0,0,0.296,3.59-1.046,6.221c-1.343,2.629-4.127,4.92-4.127,4.92
			s-3.183,2.896-4.182,4.355c-1,1.461-1.78,3.06-0.623,6.385c0,0,0.613-3.131,2.042-4.858c1.429-1.729,3.391-3.575,5.216-5.205
			C82.96,119.782,86.034,116.463,87.258,110.909z"/>
		<polygon fill="#FFCE00" points="78.879,106.994 80.962,108.276 73.5,116.091 		"/>
	</g>
	<g>
		<path fill="#FFCE00" d="M100.508,112.83l-3.646-0.05c0,0,1.526,3.264,1.184,6.197c-0.343,2.932-2.157,6.049-2.157,6.049
			s-1.976,3.822-2.405,5.538c-0.428,1.718-0.603,3.488,1.64,6.203c0,0-0.515-3.149,0.222-5.265c0.739-2.118,1.936-4.533,3.079-6.696
			C99.567,122.644,101.295,118.463,100.508,112.83z"/>
		<polygon fill="#FFCE00" points="91.291,112.076 93.69,112.553 89.415,122.477 		"/>
	</g>
	<g>
		<path fill="#FFCE00" d="M114.243,109.94l-3.417,1.273c0,0,2.604,2.488,3.347,5.348c0.742,2.857,0.18,6.419,0.18,6.419
			s-0.458,4.279-0.236,6.034c0.224,1.755,0.701,3.469,3.775,5.188c0,0-1.621-2.749-1.699-4.988c-0.08-2.241,0.162-4.926,0.443-7.356
			C116.919,119.428,117.015,114.905,114.243,109.94z"/>
		<polygon fill="#FFCE00" points="105.377,112.574 107.787,112.15 107.395,122.948 		"/>
	</g>
	<g>
		<path fill="#FFCE00" d="M125.606,102.542l-2.785,2.354c0,0,3.293,1.462,4.96,3.9c1.664,2.438,2.34,5.98,2.34,5.98
			s1.018,4.182,1.82,5.759c0.804,1.575,1.833,3.026,5.307,3.604c0,0-2.455-2.037-3.287-4.119s-1.514-4.689-2.069-7.073
			C131.335,110.565,129.896,106.277,125.606,102.542z"/>
		<polygon fill="#FFCE00" points="118.154,108.021 120.278,106.807 123.562,117.1 		"/>
	</g>
	<g>
		<path fill="#FFCE00" d="M133.842,92.301l-1.854,3.14c0,0,3.591,0.295,5.967,2.049c2.373,1.754,4.179,4.877,4.179,4.877
			s2.337,3.612,3.614,4.837c1.278,1.224,2.728,2.255,6.197,1.656c0,0-2.989-1.117-4.459-2.809c-1.474-1.691-2.975-3.929-4.284-5.996
			C141.893,97.99,139.121,94.414,133.842,92.301z"/>
		<polygon fill="#FFCE00" points="128.609,99.927 130.215,98.082 136.705,106.72 		"/>
	</g>
	<g>
		<path fill="#FFCE00" d="M138.382,79.418l-0.674,3.583c0,0,3.476-0.944,6.308-0.104c2.829,0.842,5.59,3.162,5.59,3.162
			s3.428,2.603,5.045,3.318c1.618,0.716,3.331,1.192,6.392-0.553c0,0-3.19-0.031-5.149-1.121c-1.96-1.09-4.134-2.684-6.069-4.181
			C147.889,82.027,144.066,79.608,138.382,79.418z"/>
		<polygon fill="#FFCE00" points="136.059,88.37 136.94,86.088 145.982,92 		"/>
	</g>
	<g>
		<path fill="#FFCE00" d="M137.708,65.768l0.578,3.601c0,0,2.951-2.066,5.9-2.233c2.947-0.166,6.329,1.084,6.329,1.084
			s4.107,1.29,5.87,1.416c1.766,0.127,3.54-0.005,5.828-2.682c0,0-3.014,1.049-5.226,0.687c-2.213-0.362-4.798-1.127-7.125-1.882
			C147.536,65.006,143.121,64.024,137.708,65.768z"/>
		<polygon fill="#FFCE00" points="138.548,74.978 138.607,72.532 149.117,75.036 		"/>
	</g>
	<g>
		<path fill="#FFCE00" d="M132.387,53.178l1.755,3.196c0,0,2.084-2.938,4.805-4.088c2.72-1.147,6.326-1.106,6.326-1.106
			s4.302-0.167,6.005-0.643c1.704-0.474,3.331-1.194,4.586-4.484c0,0-2.484,2.002-4.689,2.402c-2.207,0.404-4.897,0.554-7.345,0.627
			C141.388,49.154,136.898,49.716,132.387,53.178z"/>
		<polygon fill="#FFCE00" points="136.276,61.568 135.51,59.246 146.249,58.068 		"/>
	</g>
	<g>
		<path fill="#FFCE00" d="M123.182,43.548l2.791,2.349c0,0,0.883-3.492,3.005-5.546c2.124-2.052,5.501-3.315,5.501-3.315
			s3.95-1.707,5.368-2.765c1.418-1.058,2.677-2.315,2.659-5.838c0,0-1.596,2.763-3.508,3.933c-1.911,1.174-4.366,2.283-6.623,3.234
			C130.124,36.549,126.141,38.692,123.182,43.548z"/>
		<polygon fill="#FFCE00" points="129.836,49.971 128.283,48.081 137.875,43.108 		"/>
	</g>
	<g>
		<path fill="#FFCE00" d="M111.461,37.119l3.417,1.275c0,0-0.34-3.586,0.97-6.232c1.312-2.646,4.069-4.971,4.069-4.971
			s3.148-2.934,4.129-4.406c0.981-1.473,1.743-3.08,0.544-6.392c0,0-0.575,3.139-1.982,4.882c-1.407,1.747-3.348,3.617-5.154,5.269
			C115.65,28.196,112.617,31.552,111.461,37.119z"/>
		<polygon fill="#FFCE00" points="119.886,40.936 117.789,39.677 125.154,31.773 		"/>
	</g>
</g>
<path fill="#C2BEBB" d="M140.58,78.511c0,0-2.107,0.249-2.553-0.11c-3.411-4.743-12.065-11.603-12.065-11.603
	s1.304,2.754,2.108,4.002c0.805,1.248,1.553,2.968,0.999,3.772c-0.555,0.805-1.442-0.443-1.47-0.788
	c-0.028-0.345-1.415-3.595-2.386-5.176c-0.97-1.581-2.136-2.773-2.136-2.773c-4.188-1.637-10.068-2.22-15.921-2.107
	c-5.853,0.109-12.853,2.382-12.853,2.382c0.19-3.223,1.456-7.351,1.456-7.351c-9.146,1.427-11.347,12.027-11.347,12.027
	c-2.466,2.011-8.99,9.028-11.375,12.828c-3.217,3.883-5.132,14.507-5.408,16.919c-0.279,2.414,0.636,6.574,1.941,9.294
	c2.08,3.411,1.775,6.934,1.886,7.876c0.112,0.944,0.306,1.998,1.193,2.035c1.775-0.406,2.773-2.922,4.582-5.807
	c2.64-3.911,5.737-12.315,5.737-12.315c5.908,0.721,8.987-0.777,10.722-2.469c2.399-2.886,1.955-7.795,1.955-7.795
	s-1.526,1.526-2.136,2.053c-0.61,0.527-3.357,0.805-3.69,0.776c-1.137,0.166-3.55,2.913-4.021,3.356
	c-0.472,0.444-0.639,0.361-0.971,0.278c4.937-9.54,12.066-12.953,16.504-16.005c6.878-3.883,13.48-5.465,18.252-5.881
	c7.739-0.277,13.786,4.605,13.786,4.605c-0.638,0.971-2.581,5.713-2.192,7.905c0.888,2.274,2.192,3.246,2.192,3.246
	c0.111-0.805,0.249-1.832,0.693-2.644c1.041-1.484,3.411-3.32,3.646-3.766c0.562-0.943,1.014-2.136,1.014-2.136
	c1.47,1.388,3.772,1.082,5.111,0.333c1.672-0.859,5.762-1.22,5.762-1.22C146.017,78.844,140.58,78.511,140.58,78.511z
	 M74.056,108.36c-0.098,0.223-0.348,0.474-0.406,0.338c-0.058-0.135-0.348-0.677-0.348-0.677c-0.463-1.506-0.29-1.873,0-2.318
	c0.29-0.444,0.696-0.521,1.198-0.231C75.099,106.051,74.152,108.138,74.056,108.36z"/>
<g>
	<g>
		<path fill="#054D87" d="M184.45,55.57l3.069-0.53l3.042-0.837l3.32-0.028h1.145l1.479-0.027l0.363,0.056l3.125,0.474l1.842,0.28
			l0.418,0.139l0.028-0.056l1.284,0.391l0.586,0.14l2.343,1.088l0.475,0.196l1.34,1.255c0.297,0.279,0.596,0.772,0.894,1.479
			l-0.224,0.168l0.502,2.846l0.195,0.447l0.112,1.145l-0.195,0.474l-0.168,0.168l-0.14,0.083v0.141l-0.977,1.366
			c-0.261,0.298-0.446,0.457-0.558,0.475l-2.316,1.674l-1.591,1.089l-0.084,0.083l-0.167-0.056l-0.698,0.42l-2.566,1.199
			l-0.279,0.195l-1.088,0.391l-1.87,0.948l-1.423,0.587l-1.423,0.502c-0.446,0.279-0.717,0.419-0.81,0.419
			c-0.149,0-0.345,0.064-0.586,0.194l-0.613,0.475l-0.81-0.084l-0.112,0.168l1.145,0.168l1.367,0.223l-0.027,0.111l0.586,0.195
			v-0.14l3.097,0.614l1.116,0.446l1.702,0.446h0.279l0.223,0.141l0.392,0.027l0.111,0.167l0.027-0.111l0.503,0.168l0.781,0.306
			l-0.056-0.139l1.674,0.586l0.503,0.112l0.139,0.167l0.503,0.083l2.316,1.256l-0.028-0.307c0.483,0.242,0.901,0.55,1.256,0.921
			l0.279,0.697l0.194,0.67l-1.032,1.423l-0.53,1.117l0.084,0.725l-0.195,0.419l0.056,0.195l-0.111,0.446l0.14,0.167l-0.084,0.196
			l-0.308,0.893l0.28,0.697l-0.28,0.53l-0.391,0.335l0.391-0.838l-0.027-0.25c-0.075,0.261-0.215,0.577-0.419,0.948
			c-0.074,0.167-0.149,0.251-0.223,0.251c0-0.019-0.006-0.032-0.014-0.041c-0.011-0.01-0.024-0.015-0.042-0.015h-0.056
			c-0.02,0-0.056,0.027-0.111,0.083l-1.34,1.843l-0.028-0.251l-1.116,0.921l0.475-0.754l0.362-0.362l0.252-0.168l0.111,0.028
			l0.223-0.252l0.057-0.195l0.111-0.056l-0.111-0.223l-1.145,1.172l0.056-0.251l0.643-0.586l0.111-0.53l-1.2,0.224l-0.474,0.111
			l-0.141-0.224l0.112-0.14l-0.057-0.167l-0.418,0.167l-2.037,1.591l-0.057-0.838l-0.334-0.027l-0.056,0.112l-0.195-0.029
			l-0.726,0.253l-0.223,0.027L197.9,91.12l-0.027-0.139l0.111-0.084l-1.786-0.167l-1.116,0.083l-0.475,0.168h-0.753l-0.698,0.056
			l-0.809,0.083l-0.308,0.056l0.056-0.111l-0.362-0.278l-0.362,0.027l-0.28,0.028l-0.977,0.056l-0.334-0.028l-1.842-0.056
			l-1.2,0.224l-0.083,0.056l-0.196-0.474l-2.148-0.085l-0.81,0.029l-0.529-0.196l0.278-0.363l-1.172-0.083l-0.697-0.475l2.679-0.586
			l0.224-0.111l0.893-0.167l2.734-0.476l0.754-0.167l0.251-0.111l-0.056-0.056l0.111-0.056l-0.028,0.111l0.112-0.111l0.726-0.14
			l1.116-0.195l1.618-0.363l1.061-0.167l1.396-0.391l2.79-0.587l1.479-0.361l1.34-0.196l0.362-0.251l1.396-0.195l1.534-0.53
			l0.447-0.419l0.335-0.278l-0.559-0.111l0.112-0.084l-0.447-0.279l-0.307-0.057l-0.167-0.167v0.084l-1.284-0.53l-1.228-0.419
			l-1.423-0.446l-3.153-0.865l-1.228-0.194l-0.308,0.027l-1.005-0.251l-0.278-0.14l-0.028-0.084l-0.642-0.279l0.112-0.027
			l-0.028-0.111l-0.446,0.056v0.167l-0.671-0.251l0.419,0.056l-0.056-0.223l1.729,0.334l1.703,0.279l0.81,0.14l0.195,0.112
			l0.139,0.14l0.838,0.111l1.423,0.334l0.362,0.141l1.507,0.558l1.507,0.418l0.503,0.336l0.502,0.056l0.391,0.278l0.307,0.111
			l-0.027,0.056l0.948,0.224l0.419,0.363l0.279-0.027l0.446-0.224l-3.488-1.73l-0.865-0.224l-0.083-0.139l-0.084,0.111l-0.893-0.335
			h0.167l-0.056-0.168l-0.111,0.084V80.74l3.822,1.339l1.34,0.67l0.418,0.307l-0.056-0.613l-0.056,0.111l-0.251-0.139l0.167,0.056
			l-0.056-0.168l0.308,0.14v-0.111c-0.262-0.224-0.503-0.4-0.726-0.53c-0.112-0.074-0.55-0.27-1.312-0.586
			c-0.894-0.41-1.405-0.633-1.535-0.67l-1.005-0.308l-0.307-0.111l-4.214-1.228l-0.53-0.056l-2.874-0.697l-0.697-0.028l-1.618-0.308
			l-0.084,0.112l-0.921-0.14l-0.111,0.363v0.474l2.009,0.362l0.67-0.056l0.083,0.141l0.111-0.057l0.28,0.308l-1.228-0.14
			l-1.479-0.308l-1.34-0.111l-0.362,0.056l-0.057,0.391l0.419-0.027l0.084,0.168l0.224,0.083l0.475,0.028l0.056,0.056l-0.308,0.586
			l0.252-0.057l0.167,0.084l0.056,0.111l0.697,0.252l1.451,0.391c0.148,0.019,0.428,0.103,0.837,0.251
			c0.316,0.111,0.651,0.187,1.005,0.224l-0.027,0.14l-0.894-0.168l-2.456-0.391l-0.836-0.307l-2.093-0.53l-1.786-0.196l-2.037-0.139
			l-0.084,0.837l-0.558,2.177l-1.257,4.13l0.084-0.446l0.057-1.116l-1.173,4.018l-0.084,0.056l-0.362,1.229l-1.032,1.061l0.474-1.87
			l0.056-0.251l-0.056-1.897l0.056-1.926l0.643-3.348l0.279-1.479l-0.419-0.224l0.81-0.027l0.194-0.307V79.68l0.252-0.586
			l-0.028-0.781l0.195-0.335l-0.195-0.558l-0.139-1.73l1.144-3.293l0.446-0.139l-0.056-0.224l0.14-0.084l0.446-1.674l0.781-3.209
			l0.586-2.4l0.587-1.813l-0.196,0.558l-0.753,2.763l-0.14,0.754l-0.418,1.562l-0.643,2.847h-0.084l0.028,0.418l-0.084,0.251
			l0.865-2.985l0.67-2.985l0.167,0.027l0.252-1.172v0.474l0.893-4.408l-0.14,0.418l-0.056-0.056l-0.056,0.251l0.194-0.391
			l-0.307,1.033l-0.251,0.586l0.53-1.925l-0.251-0.224l-0.056-0.308l-1.061,0.14l0.056-0.335l-0.167-0.056l-0.112,0.502l-0.14,1.702
			l-0.669,2.707L183,69.689l-0.112-0.529l-0.168-1.703l0.475-1.925l0.614-2.679l0.279-1.2l0.111-0.14l-0.084-0.223l0.168-0.335
			l-0.336-0.14l-0.223-0.586l-1.562,0.167l-2.148,0.531l0.027-0.364l-0.362-0.056l-0.586,0.168l-0.223,0.111l-1.229,0.308
			l-0.697,0.251l0.223-0.224l1.451-0.559l1.032-0.278l0.279-0.14l-0.168-0.167l0.279-0.084l-0.083-0.279l-2.289,0.642l-1.367,0.503
			c-0.056,0-0.13-0.028-0.223-0.084l-0.224,0.084l-0.111-0.419l-0.921,0.308l-1.646,0.027h-0.475l-0.278,0.14l-0.447,0.195
			c0.242-0.279,0.642-0.503,1.2-0.67c0.315-0.093,0.716-0.251,1.2-0.474l0.251-0.168v-0.195l-0.111-0.251l-0.419,0.167l0.084-0.223
			l0.362-0.503l2.26-0.92l2.512-0.949l3.572-0.921L184.45,55.57z M187.799,64.891l0.977-4.13l-0.279,0.642l-1.255,4.995
			l-0.643,2.623l-0.418,1.953l0.278,0.056l0.53-2.177l0.614-2.344l-0.418,0.948L187.799,64.891z M197.119,59.979l-2.931-0.195
			l-2.176,0.224l-2.372,0.194l-0.559,2.232l-0.195,0.391l-0.418,1.702l-1.675,6.446l-0.056,0.14l-0.475,2.344l1.061-0.419
			l0.81-0.362l0.251-0.084l1.312-0.558l3.99-1.758l3.516-1.34l2.205-0.977l2.567-1.116l1.925-0.977l0.419-0.111l0.279-0.029
			l0.251-0.111l1.199-0.669l-0.278-0.948l-1.2-1.479v-0.251l-0.168-0.056l-1.813-1.089l-3.069-0.837l-1.758-0.278L197.119,59.979z
			 M195.64,76.275l-1.311-0.195l0.445,0.224l2.624,0.613l0.445,0.027l0.112-0.083l-0.112,0.027l0.363,0.196l0.028-0.056
			l-0.224-0.112l0.14-0.084l-1.34-0.251L195.64,76.275z"/>
		<path fill="#054D87" d="M235.962,54.008l1.535-0.53l0.194,0.084l-0.836,0.418l0.027,0.391l0.67-0.391l0.754,0.559l-1.898,0.893
			l-0.502,0.251l-1.702,1.312l0.111,0.195c0.521-0.13,0.958-0.362,1.312-0.698l0.614-0.25l1.2-0.726l0.056,0.195l0.558,0.168
			l1.088-0.168v0.195l-0.139,0.056l0.083,0.335h0.865l-0.083,0.111l0.669,0.447h0.335l-0.14,0.195l0.308,0.25l-0.111,0.084
			l-0.308,0.279l-1.897,0.252l-1.507,0.445l-2.065,1.005l-1.088,0.475l-0.559,0.391l-1.869,1.088l-0.726,0.475l-0.697,0.977
			l3.487-2.12l2.094-1.201l2.148-0.836l0.921-0.335l1.451-0.279l0.614-0.056l0.334,0.307l0.084,0.223l-3.098,1.089l-2.596,1.2
			l-0.697,0.279l-2.064,1.116l-0.614,0.53l-2.372,1.618l-0.948,0.948l-1.786,1.675l-1.59,1.701l-1.703,2.065l-0.92,1.2l-1.87,2.512
			l-1.061,1.953l-0.642,1.702l1.004-0.391l0.028-0.028l1.34-0.446l0.279,0.195l1.981-0.781l2.929-0.949l0.419,0.111l0.838-0.25
			l2.958-1.283l0.697-0.336l1.729-0.669l1.535-0.643l-0.307,0.419l2.176-0.864l2.372-0.865l1.563-0.419l0.669-0.112l1.618-0.613
			l0.084,0.028l1.005-0.42l-0.084,0.224l-0.502,0.308l-0.056,0.223l-1.591,0.754l0.977-0.279l-3.209,1.367l-0.112,0.084
			l-0.753,0.307l-0.224,0.335l-0.837,0.502l-0.474,0.727l-4.912,2.427l-0.39,0.587l0.167,0.111l0.278-0.056h0.308l-0.949,0.529
			l-8.147,3.795l-1.591,0.614l-1.396,0.642l-2.037,1.005l-1.591,0.837l0.056,0.362l-0.056,0.057l-0.083,1.702l0.391,1.311
			l0.056,0.085l0.335,0.167l0.056,0.168l0.028-0.111l1.088,0.418l1.256-0.446l2.511-0.893l0.252,0.027L219.387,89l1.032,0.111
			l4.549-1.729l-0.168,0.307l-0.194,0.111l0.111,0.307l-0.754,0.308v0.753l2.177-0.418l0.558-0.167l0.028-0.056l0.475-0.224
			l-0.782,0.224l-0.278-0.028l-0.279-0.057l0.084-0.362l0.726-0.391h-0.697l0.167-0.195l0.307-0.168l0.308-0.195l0.307,0.056
			l1.423-1.032l5.078-2.344l5.079-3.042l2.65-1.758l1.731-0.167l0.139,0.251l0.167-0.057l0.112-0.056l-0.027,0.168l-0.391,0.308
			l-0.308,0.585l-0.362,0.224c-0.15,0.335-0.224,0.577-0.224,0.726c0,0.037,0.009,0.065,0.027,0.083v0.168l0.978,0.391l1.646-1.199
			l0.671-0.698l-0.949,1.312l-4.688,3.433l-1.032,0.642l-3.265,1.813l-0.363,0.419l-0.39,0.195v0.112l-3.098,1.395
			c-0.41,0.149-0.736,0.271-0.977,0.362c-0.41,0.149-0.698,0.271-0.865,0.363c-0.224,0.111-0.409,0.27-0.559,0.474l-3.655,0.865
			l-1.145,0.195l-1.813,0.252h-1.702l-1.925-0.252c-0.149-0.037-0.252-0.065-0.308-0.084h-0.167l-0.782-0.223l-0.362-0.056
			l-0.67-0.307l-1.618-0.754l-2.065-1.758l-0.893-0.418l-0.278-0.419l-0.419,0.224l-1.312,0.111l0.167-0.587l0.475-0.167
			c0.056-0.26,0.084-0.482,0.084-0.67c0-0.204-0.037-0.446-0.111-0.725c0.167-0.428,0.27-0.828,0.307-1.2l0.642-2.986l0.949-3.236
			l0.697-1.674l-0.977,2.93l-0.53,2.037l0.056,0.502l0.697-2.707l1.145-3.125l0.446-0.921l-0.921,2.232l-0.977,3.376l0.419,0.447
			l0.893-2.345l0.307-0.977l0.335-0.278l0.754-2.037l1.507-2.931l1.562-2.315l1.646-2.372l1.116-1.451
			c0.391-0.446,0.977-1.098,1.758-1.954c0.559-0.613,0.921-0.985,1.088-1.115c0.186-0.112,0.308-0.187,0.363-0.224l0.53-0.53
			l1.591-1.701l0.642-0.531l3.683-2.874c0.688-0.521,1.229-0.935,1.619-1.241c0.391-0.308,0.66-0.517,0.809-0.628l1.368-0.865
			L235.962,54.008z"/>
		<path fill="#054D87" d="M265.681,52.026l0.167,0.14l1.534-0.838l-0.669,1.592l-0.167,0.111c-0.112,0.278-0.279,0.558-0.503,0.837
			c-0.037,0.074-0.065,0.121-0.083,0.14l-0.224,0.278l0.224,0.167l-0.614,1.062l0.614,0.167l0.111,0.224l-0.111,0.167l0.111,0.028
			l0.223-0.111l0.67,0.027l0.084,0.056l0.084,0.056v0.028h4.213l0.335-0.056l3.349-0.195l1.172,0.028l-0.111,0.056l-0.028,0.307
			l-0.362,0.027v0.14l0.278,0.056l0.586-0.111l0.028-0.111l1.312-0.474l0.559,0.027l0.111,0.028l0.279-0.42l0.307-0.056l0.027,0.279
			l0.085,0.084l-0.112,0.195l-0.195,0.111l-0.308,0.084l-0.223,0.362l-0.083-0.028l-0.112,0.196l-0.168,0.056
			c-0.074,0.094-0.163,0.229-0.265,0.404c-0.103,0.178-0.191,0.312-0.265,0.405l-0.335,0.195l-0.475,0.195l-0.195,0.223
			l-0.475,0.168l-0.167,0.223l-0.14-0.028v0.085l-2.261,0.613c-0.13-0.13-0.214-0.195-0.251-0.195c-0.093,0-0.195,0.074-0.307,0.224
			l-1.702,0.251l-0.894,0.167l-5.162,0.028l-1.562,0.084l-3.236,5.413l-2.428,4.912l-1.033,2.594l-0.754,2.875l-0.083,0.334
			c-0.167,0.726-0.307,1.22-0.418,1.479l-0.865,2.818l-0.056,0.726l-0.168,0.279l-0.056,1.339l0.251,2.567l0.503,1.73v0.083
			l0.167,0.335l0.084,0.195l0.027,0.028l0.112,0.168h0.14l-0.112,0.167l0.335,0.39l0.167,0.838l0.531,0.503l-1.229-0.838
			l-0.167-0.251h-0.111l-0.643-0.977l-0.921-2.204l-0.391,0.224l0.335,1.673h0.084l0.223,1.284l0.363,0.977l0.362,0.558l1.981-0.306
			L258.537,89l-0.057,0.167l0.978-0.334l0.669-0.335l0.586-0.168l0.977-0.558v-0.084l-0.111,0.111l-0.837,0.335l-0.028-0.111
			l0.559-0.418l0.168,0.083l0.139-0.251l0.056,0.056c0.409-0.26,0.79-0.447,1.145-0.559l0.418-0.083l3.377-2.399l-1.702,1.366
			l1.396-0.837l2.455-1.785L268.75,83l0.195-0.084v0.252l0.502-0.084l-0.167,0.363l-0.419,0.558l0.363-0.14l1.451-1.116
			l-0.949,1.061l-0.195,0.391l0.614-0.14l-0.14,0.336c0.056-0.057,0.102-0.099,0.14-0.126c0.036-0.028,0.073-0.061,0.111-0.098
			c0.056-0.057,0.093-0.089,0.111-0.098c0.018-0.01,0.037-0.023,0.056-0.043c0.315-0.26,0.567-0.427,0.754-0.501l-1.396,1.228
			l-1.507,1.06l-1.562,0.894l-0.614,0.362l-0.335,0.195c-0.037,0.037-0.075,0.065-0.111,0.084c-0.02,0-0.042,0.014-0.069,0.042
			c-0.028,0.027-0.062,0.052-0.098,0.069c-0.057,0.038-0.122,0.094-0.196,0.168l-0.194,0.084l0.083,0.223l-0.223,0.14l-0.224,0.251
			l-0.278,0.111l-0.81,0.53l0.167,0.084l0.057,0.056l1.98-0.949l-0.335,0.252l-0.027,0.279l-0.279,0.14l0.083-0.195l-0.307,0.111
			l-0.056,0.195l-0.056,0.223l1.256-0.446l-0.698,0.362l-0.418,0.335l-1.675,0.865l-1.562,0.336
			c0.372-0.279,0.781-0.438,1.229-0.476l0.502-0.39l-2.4,0.865l-1.842,0.753l-1.061,0.224l-0.529,0.111l-0.642,0.111l-0.392-0.056
			l0.141-0.084l-0.224-0.027c-0.316,0-0.586-0.02-0.81-0.056c-0.056-0.038-0.111-0.057-0.167-0.057
			c-0.056-0.02-0.122-0.037-0.195-0.056c-0.075-0.02-0.149-0.028-0.224-0.028c-0.502-0.111-0.735-0.167-0.697-0.167l-1.368-0.642
			l-0.642-0.392l-0.642,0.028l-1.507-0.948l-0.558-0.53l-0.838-1.591l-0.223-0.475l-0.475-1.702l0.224-0.474l-0.028-2.037
			l-0.14-0.559l0.67-3.543l0.14-0.476c0-0.297,0.074-0.65,0.224-1.061l0.056,0.308l0.224,0.168l0.139-0.056l-0.083,0.139
			l-0.279,1.675l-0.195,1.841l-0.084,1.926v1.591l0.642,2.037l-0.335-1.897l-0.027-1.703v-1.646l0.139-1.842l0.419-2.037
			l0.084-0.195l0.056,0.112l0.754-2.513l-0.308,1.34l-0.251,0.894v0.279c-0.02,0.056-0.027,0.167-0.027,0.334l-0.53,2.093
			l-0.14,2.26l-0.028,2.316l0.391,2.372l0.67,0.335l-0.307-0.726l-0.335-1.896l0.139-4.466l0.279-1.2l0.865-3.432l0.392-1.228
			c0.092-0.335,0.152-0.545,0.181-0.628c0.028-0.084,0.051-0.145,0.069-0.182l0.838-2.148l0.613-1.479
			c0.093-0.241,0.182-0.451,0.265-0.628c0.084-0.176,0.154-0.321,0.21-0.433l0.335-0.642l0.307-0.725l1.172-2.624l0.279-0.195
			l0.195-0.53l1.032-1.701l1.312-2.037l-1.283-0.056l-2.372-0.224h-0.81l-0.502-0.308h1.061l-1.786-0.14l-0.921-0.027l1.591-0.084
			l1.507,0.028l1.283-0.028l0.475-0.111l0.168,0.056v-0.167l-2.233,0.027l-0.083-0.167l-0.224,0.251l-0.502-0.14l-0.643,0.084
			l0.085-0.084l-0.586-0.056l-1.563,0.084h-0.753l-2.065-0.111l-0.725-0.056l-0.698-0.056l-0.419-0.028l0.502-0.28l-1.869-0.083
			l-2.177-0.307l2.428,0.195l2.148-0.028l-0.027-0.14l0.81-0.223l-1.926-0.084l-0.977,0.057l-2.707-0.224l1.87-0.168l-0.168-0.084
			l-0.697,0.028l-0.111-0.14l-0.308-0.028l2.596-0.278l0.027-0.167l0.168-0.028l0.028-0.224l0.558,0.111l2.986-0.027l-1.284-0.111
			l-2.037-0.085l-0.14-0.056l0.223-0.111v-0.111l0.28,0.028l0.056-0.195l0.307,0.056v-0.028l2.902-0.027l0.418-0.028l1.674,0.056
			l0.196-0.167l2.455-0.056l0.224,0.056l0.475-0.056l0.056,0.056l1.032-0.056l1.897-0.111l2.261-0.224h0.474l0.67-0.781l0.308-0.251
			l-0.447,0.753l0.503-0.502l1.339-1.256l-0.697,1.507l0.224-0.223l0.139,0.083l0.167-0.307l0.168-0.112l0.335-0.474l1.34-1.256
			L265.681,52.026z M250.668,88.554l-0.726-0.643l0.614,0.81l0.501,0.586l-0.056,0.111l0.698,0.503l0.391,0.083l0.084-0.139
			l-0.308-0.224c-0.187-0.428-0.362-0.726-0.53-0.893L250.668,88.554z M250.612,87.13l-0.559-0.251l0.279,0.754l0.027,0.028
			l0.196,0.501l0.669,0.308l-0.279-0.419L250.612,87.13z M263.615,59.086l-0.251-0.139l-0.112,0.307l1.591,0.027l1.647-0.307
			l-1.173-0.056l-1.45,0.084h-0.224L263.615,59.086z"/>
		<path fill="#054D87" d="M290.516,52.11l0.697-0.335l0.14,0.056l-0.056,0.167l-1.562,0.754l-1.535,1.116l-0.697,0.67l0.445-0.363
			h0.168l1.228-0.865l-0.027,0.196l-0.363,0.391l1.032-0.559l0.196,0.083v0.392l0.363,0.278l-2.735,2.344l-1.507,1.73l0.251,0.614
			c-0.242,0.446-0.429,0.735-0.558,0.865l-0.279,0.251c-0.167,0.168-0.493,0.354-0.977,0.558l-0.475,0.392
			c-0.242,0.409-0.4,0.65-0.475,0.725c-0.186,0.262-0.289,0.41-0.307,0.447l-2.037,3.739l-0.837,2.093l-0.949,3.32l-0.195,0.112
			l-0.25,0.893l-0.308,3.236l0.083,2.177l0.392,1.814l0.53,1.422l1.06,1.675l0.81,0.81l0.391,0.279l2.064,0.977l-0.223,0.056
			l0.056,0.195l1.2,0.362l1.98,0.279l2.148-0.14l-0.083,0.279l-1.618,0.278l-2.679-0.39l-1.675-0.614l-1.507-1.005l-1.256-1.339
			l-0.865-1.396l-1.061-2.456l1.116,3.209l0.252,0.419l1.144,1.396l0.977,0.781l1.842,0.865c0.019,0,0.064,0.014,0.14,0.041
			c0.074,0.028,0.157,0.062,0.252,0.099l0.613,0.167h0.111c0.056,0.019,0.14,0.047,0.251,0.084l0.279,0.111l0.977,0.084l1.87-0.084
			l2.177-0.418c0.408-0.074,0.697-0.158,0.865-0.252l0.501-0.224l3.154-1.283l1.311-0.781l0.53-0.223l2.567-1.759l2.512-2.204
			l1.088-1.2l1.814-2.287l0.921-1.508l0.334-1.005l0.447-1.617l0.335-1.73l0.307-0.084l0.111,0.028l0.057-0.14l0.223-0.14
			l0.168-0.363c0.26-0.241,0.427-0.418,0.501-0.529c0.075-0.168,0.121-0.372,0.141-0.614h0.027l0.392-1.954v-2.009l0.167-0.362
			l0.083-0.056l-0.083-0.111v-2.372l-0.754-2.512l-0.837-1.088v-0.168c-0.262-0.315-0.54-0.559-0.837-0.726l-1.005-0.502
			l-0.809-0.252l-0.475,0.028l-6.865,0.977l-2.064,0.977l-2.679,1.675l-2.232,1.842l-2.456,2.371l-1.758,2.455l-0.335,0.615
			l-0.726,1.339l-1.339,3.544l-0.335,1.59c-0.094,0.41-0.167,0.819-0.223,1.229c-0.112,0.205-0.242,0.753-0.392,1.646l-0.139,0.726
			l-0.057-1.144l-0.586,0.669l0.14,0.559l-0.112,0.474h-0.976l-0.195-0.251v-0.39l-0.195-0.308v-0.502l-0.112-0.056l-0.14-1.145
			l-0.195,1.479l-0.251-0.726l0.112-2.428l-0.112,0.084l-0.111,0.643l-0.084-0.727l-0.056-0.418l-0.083,0.084l-0.112-0.224
			l0.837-2.79l1.228-2.177l0.363-0.419l0.056-0.251l0.643-0.642l0.056-0.308l0.223-0.362l0.894-1.088l0.335-0.392l2.846-2.595
			l1.367-1.06l1.451-1.172c0.037-0.037,0.316-0.215,0.837-0.531c0.056-0.056,0.186-0.148,0.391-0.278l0.446-0.308l0.559-0.251
			l1.674-0.893l1.34-0.642l2.009-0.754l0.754-0.391l3.014-0.559l1.897,0.084l3.32,0.475c0.297,0.037,0.65,0.242,1.061,0.613
			l1.145,0.559l2.008,1.562l0.727,1.228l0.419,1.257l0.223,0.027c0.037,0.167,0.064,0.26,0.083,0.278v0.168l0.224,0.893
			l-0.027,1.005l0.111,2.037l-0.223,0.335l0.056,0.363c-0.112,0.278-0.178,0.585-0.196,0.921c-0.056,0.576-0.232,1.228-0.53,1.952
			l-0.642,1.758l-0.194,0.476c-0.075,0.186-0.126,0.307-0.154,0.362c-0.027,0.056-0.052,0.111-0.069,0.167l-0.447,0.754
			l-0.892,1.618l-1.257,2.065c-0.335,0.558-0.549,0.884-0.642,0.977l-0.335,0.335l-1.423,1.869l-1.116,1.228l-1.172,1.396
			c-0.279,0.187-0.419,0.289-0.419,0.307l-0.251,0.308l-0.279,0.223l-2.455,2.232l-3.014,2.037l-2.372,1.479l-1.59,0.697
			l-0.978,0.446l-1.758,0.642l-1.758,0.503l-1.981,0.223c-0.54,0.167-0.903,0.345-1.088,0.531c-0.187,0.186-0.308,0.521-0.363,1.004
			c0.148,0.316,0.335,0.549,0.559,0.697l-0.643,0.112l-0.139,0.111l-1.172-0.196l-2.121-0.92l-0.697-0.224l-0.838-0.446l0.028-0.418
			l-0.279,0.139l-0.139,0.419l0.474,0.67l-1.423-1.116l-1.562-1.786l-1.2-2.009l-0.754-2.372l-0.307-1.646v-1.842l0.111-2.986
			l0.224-0.642l0.475-2.093l1.228-4.157l1.284-3.266l0.977-1.841l0.027-0.112l0.977-1.925l1.312-2.065l0.335-0.586l2.958-3.935
			l0.53-0.502l0.391-0.224l3.182-3.098L290.516,52.11z M283.483,71.671l0.419-0.809v-2.065l-0.614,2.121v0.864l0.195-0.056V71.671z"
			/>
		<path fill="#054D87" d="M325.117,54.035l0.697-1.004l-1.089,1.953l0.392-0.056l-0.53,0.949l1.255-1.145l0.085,0.056
			c0.204-0.392,0.558-0.707,1.06-0.948l0.224,0.167l0.697-0.084l-1.395,1.591l1.283-1.117l0.362-0.474l0.697,0.056l0.112,0.224
			l0.251-0.224l0.559,0.14l0.67,0.056l0.167-0.084l0.278,0.168l-0.78,1.786l-1.284,2.595l-0.362,0.726l0.027,0.14l-0.251,0.307
			l-0.586,1.451l-0.278,0.558l0.056,0.028l-2.567,5.358l-1.451,3.459l-1.396,4.382l-0.502,2.428l-0.782,3.181l-0.307,3.517
			l0.084,2.316l0.167,0.809l1.563,1.312l-0.028,0.529c0.261,0.224,0.492,0.354,0.697,0.392c0.205,0.056,0.559,0.084,1.061,0.084
			l0.195-0.168l0.112,0.028l0.529-0.392l1.897-1.199l-0.893,0.893l-0.391,0.362c-0.075,0.075-0.122,0.132-0.14,0.168
			c-0.019,0.056-0.074,0.131-0.167,0.224l0.754-0.336l1.366-0.864l1.005-0.809l2.288-2.093l-0.697,0.362l0.948-0.949l1.73-2.12
			l0.418-0.391l0.698-0.893l0.753-1.061l-0.446,0.502l-1.646,1.73l-0.195,0.306l-0.837,1.116l-1.842,1.759l-0.056,0.223
			l-0.307,0.252l-0.726,0.753l-0.084-0.167l0.084-0.224l-0.028-0.083l0.502-0.531l2.819-3.153l1.451-1.757l0.307-0.503l2.204-3.014
			L335.888,77l0.195-0.306l0.168-0.168l0.028-0.167l0.139-0.111l0.586-1.089l2.4-4.27c0.224-0.354,0.381-0.642,0.475-0.865
			l0.921-1.896l0.921-1.981l1.004-1.814l0.307-0.586l0.279-1.06l0.697-1.619l0.475-0.893l-0.307,1.004l-0.335,1.367l-0.418,1.061
			l-0.447,0.977c-0.056,0.188-0.121,0.354-0.194,0.503l-0.419,0.753l-0.279,0.753c-0.111,0.28-0.178,0.457-0.195,0.531l-0.14-0.028
			l-0.418,1.367l0.223-0.027l-0.195,0.446l-0.726,1.534l0.362-0.502l0.53-0.725l0.224-0.531l0.056,0.251l-0.474,1.173l-0.224,0.529
			l-0.195,0.559l-0.838,1.228l-0.278,0.53l-0.252,0.503l-0.307,0.697l0.224-0.67l-0.391,0.195c0.074-0.223,0.213-0.511,0.418-0.865
			c0.019-0.019,0.037-0.036,0.056-0.056v-0.028l-0.307,0.419l-0.474,0.753l-0.196,0.447l-0.111,0.084l-0.278,0.613l-1.256,2.01
			l-0.307,0.446l-1.73,2.455l-0.056,0.168l-0.057,0.056l-0.307,0.279l-0.223,0.334l-0.475,0.727l-1.172,1.422l-0.14,0.195
			l-0.53,0.614l0.167,0.14l1.089-0.977l-0.252,0.363l-0.027,0.027l-0.893,1.117l-0.112,0.027l-2.539,2.734l-0.697,0.559
			c-0.205,0.204-0.326,0.307-0.363,0.307v-0.028c0-0.056,0.112-0.288,0.335-0.697l-1.479,1.284v0.334l-0.754,0.586
			c-0.354,0.112-0.726,0.316-1.116,0.614l-0.502,0.224l0.224,0.362l0.418,0.084l0.251-0.056l0.252,0.278l0.334-0.195l0.53-0.194
			l0.112-0.141l0.586-0.251l1.59-1.033l2.818-1.812l2.651-2.874l0.893-0.643l1.005-1.144l0.948-1.312l0.168-0.084l-0.503,0.725v0.28
			l-0.195,0.279l-0.056,0.194l-0.25,0.14c-0.41,0.559-0.652,0.875-0.727,0.949l-0.111,0.25l-0.558,0.754l-1.396,1.479l-2.01,1.926
			l-1.451,0.948l-1.339,1.004l-0.502,0.309l-1.675,0.809l-2.344,0.586l-1.786-0.084l-2.009-0.335
			c-0.67-0.111-1.377-0.623-2.121-1.535c-0.056-0.093-0.242-0.297-0.558-0.613c-0.261-0.26-0.41-0.502-0.447-0.726
			c-0.13-0.447-0.334-0.93-0.613-1.451l-0.111-0.893l-0.084-0.224l-0.391-0.418l-0.223-1.675l-0.085-0.894l-0.167-0.251v-3.292
			l0.111,0.14l0.224-0.168l0.028,0.642l-0.028,0.447l0.056,0.613l0.111,0.363l0.084,0.027v-1.367l0.308-1.367l0.139-0.251
			l0.056-0.475l0.084-1.758l0.308-1.256c-0.187,0.224-0.308,0.539-0.363,0.949l-0.586,0.78l-0.111,0.559l-0.252,0.307l0.671-2.902
			l-0.978,3.377l-0.14,0.057l0.057-0.949l0.083-0.53l0.392-1.813l0.25-1.173l0.14,0.028l0.279-0.781l0.056-0.028l0.224-1.06
			l1.172-3.712l0.391-1.004l0.642-1.814l1.451-3.236l-0.837,0.362l-0.084-0.168l-1.618,0.168l-2.037,1.004l-1.032,0.531l0.445-0.308
			l1.005-0.78l0.503-0.335l-0.168-0.112l-0.502,0.392l-0.446,0.25l-1.396,1.005l0.279-0.419l0.223-0.251l0.028-0.195l2.707-2.037
			l0.781-0.445h0.14l0.111-0.447l0.307-0.168l-0.14-0.167l-1.088,0.559l0.81-0.614l0.726-0.419l0.642-0.391l0.111-0.083l1.116-0.838
			l0.111-0.167l0.251-0.335l0.949-0.753l0.14-0.195l0.224-0.141l0.139-0.195v-0.056l1.116-1.367l0.643-0.67L325.117,54.035z
			 M323.163,61.374l-0.251-0.195l-0.251,0.251l-0.334-0.083l-0.363,0.391l-0.308,0.809l-0.753,1.508l0.753-1.897l-0.194,0.111
			l-1.256,2.763l-0.559,1.842l-0.307,0.725l-0.949,2.428l-0.391,1.646v0.14h0.224c-0.187,0.298-0.279,0.679-0.279,1.145
			c-0.131,0.242-0.195,0.512-0.195,0.809l-0.084,0.084l0.028,0.027l0.726-1.785l0.642-1.786l1.061-2.902l0.14-0.027l0.111-0.307
			l1.312-2.791l0.67-1.451L323.163,61.374z M321.378,89.475L320.708,89l0.335,0.921l0.139,0.14v0.083l0.587,0.056l-0.251-0.669
			l0.027-0.084l-0.167-0.084V89.475z M322.55,56.379l1.34-1.395v0.056l-1.424,1.87l-1.228,1.005l0.53-0.754l-0.084,0.083
			L322.55,56.379z M322.047,89.446l-0.474-0.252l0.362,1.201l0.335-0.085l0.195,0.057v-0.084l0.391-0.14l0.559-0.307
			C322.727,89.688,322.271,89.559,322.047,89.446z M326.847,60.564l0.698-1.311h-0.446l-0.14-0.028l-0.141,0.559h-0.111l-0.78,1.59
			l-0.252,0.754l-1.255,2.344l-0.447,0.949l-0.251,0.418l-0.697,2.065l-0.475,1.367l0.502-1.144l0.586-1.312l0.279-0.642
			l1.228-2.651l0.224-0.362L326.847,60.564z M333.712,84.116l1.423-1.646l-0.224,0.558l-0.697,0.81l-0.586,1.283l-1.423,1.228
			l-1.954,1.675l-1.311,0.921l-1.033,0.81l-1.004,0.642l-0.168-0.056l0.335-0.112l0.111-0.335l0.475-0.307l1.228-0.642l-0.028-0.14
			l-0.529,0.278l-0.754,0.028l2.177-1.562l0.195,0.14l0.921-0.81l-0.223,0.028l0.418-0.418l0.977-0.977l0.754-0.754l0.669-0.671
			l0.252-0.167V84.116z M337.283,78.257l-1.256,1.869l-0.53,0.781l-1.116,1.367c-0.298,0.279-0.549,0.559-0.753,0.837l1.061-1.59
			l0.809-1.061l1.814-2.483L337.283,78.257z M336.083,78.954c-0.149,0.41-0.261,0.651-0.334,0.726l-0.279,0.362l-0.307,0.476
			l-0.81,0.893l-0.224,0.529l-0.14-0.194l0.056-0.168l0.726-1.116c0.316-0.224,0.623-0.549,0.922-0.977
			c0.018-0.019,0.063-0.083,0.139-0.194C335.888,79.196,335.972,79.085,336.083,78.954z M352.073,54.119l1.06,0.084l0.447,0.335
			l-0.671,1.869l-0.976,2.512l-0.531,1.646c-0.037,0.038-0.065,0.085-0.083,0.141c0,0.037-0.015,0.069-0.042,0.098
			c-0.028,0.027-0.052,0.061-0.069,0.098l-0.978,3.293l-1.171,3.962l-0.503,1.842l-1.34,6.529l-0.642,4.019l-0.056,1.953
			l-0.139,0.362l0.278,0.084l0.308-0.585l1.199-0.643l0.363-0.67l0.139,0.027l1.145-1.757l0.195-0.057l0.167-0.474l0.614-0.894
			l1.842-2.371l-0.502,0.893l0.056,0.335l0.278-0.195l0.141,0.111l0.083,0.14l-0.111,0.224l0.14,0.167l1.032-1.618l0.111-0.111
			l-0.14,0.306l-0.139,0.195l0.139,0.476l-3.236,5.607l-0.949,1.675l-0.948,1.759l-0.279,1.061l0.056,0.529l-0.474,1.116
			l-0.782,1.702l0.084,0.195l1.228-2.177l-1.2,2.735l-0.362,0.613l0.251,0.14l-0.893,1.34v-0.111v0.167l-0.111,0.028v-0.252
			l-0.057-0.224l0.251-0.027l-0.167,0.168l-0.334-0.168l0.362-0.948l-0.168-0.084h-0.251l-0.307-0.224l-0.14-0.111l-0.754-3.432
			l-0.753,0.864l0.084,0.391l-0.196-0.111l-0.027-0.475l-0.419-0.14l0.028-0.418l-0.418-0.698l0.194-0.139
			c-0.037-0.409-0.056-0.577-0.056-0.503c0-0.056,0.019-0.195,0.056-0.419c0.019-0.056,0.032-0.139,0.042-0.25
			s0.014-0.214,0.014-0.308c0.019-0.074,0.032-0.168,0.042-0.279s0.014-0.204,0.014-0.278v-0.81c0,0.056-0.019-0.14-0.056-0.586
			l0.196-1.116v-1.479l0.167-0.194l-0.195-0.754l-0.028,0.195l-0.251,0.14l0.111-1.424l0.084-0.585l0.363-1.73v-0.14l0.335-2.036
			h-0.028l0.335-1.48l0.335-1.729l0.335-1.172l0.251-1.284l0.391-1.534l0.111-0.67l-0.419,1.116l-0.502,2.009l-0.391,1.34
			l-0.418,2.26l-0.279,0.949l-0.167,1.479l-0.196,0.39l0.057,0.168l-0.141,0.056c-0.037,0.149-0.074,0.308-0.111,0.475
			s-0.074,0.298-0.111,0.39l0.14,0.029l-0.446,2.734l0.027,0.111l-0.14,0.027l-0.083,1.926l-0.14-0.027l-0.195,2.26l0.111-2.428
			l0.057-0.446c0.036-0.446,0.056-0.632,0.056-0.558l0.027-0.419c0-0.092,0.028-0.26,0.084-0.502l-0.056-0.503l0.139-0.475
			l-0.139-0.139l-0.111,0.083l-0.279,1.479l-0.251,2.595l-0.168,1.703v-2.819l-0.028-0.446l0.252-1.841l-0.112-0.865l0.14,0.557
			l0.224-1.673l-0.335,0.251l0.14-1.786l0.642-3.571l0.111-0.279l0.196-0.921l-0.141-0.028l0.057-0.335l-0.141,0.224l-0.111,0.195
			l-0.362,1.283l-0.195,1.033l-0.391,2.26l-0.363,1.87l-0.307,1.507l0.419-3.07l0.167-0.697v-0.224l-0.502-0.168
			c0.335-0.687,0.52-1.311,0.558-1.869l-0.502,1.089h-0.111l-0.335,0.725l-0.056,0.141l-0.53,0.725l-0.335,0.643l-0.195,0.362
			l-0.697,1.061l-1.312,1.73l1.257-2.121l0.306-0.475c0.168-0.111,0.279-0.529,0.336-1.256l1.813-2.818
			c0.371-0.26,0.623-0.65,0.753-1.172l0.168-0.111l0.056-0.446l0.111-0.308l0.084-0.529l0.223-0.698l0.056,0.14l0.252-0.391
			c-0.075,0.335-0.131,0.586-0.168,0.754c-0.038,0.167-0.084,0.362-0.14,0.585l0.28-0.194l0.558-1.703l0.446-1.479l0.307-0.837
			l0.391-0.782l0.559-1.395l0.446-1.479l0.14-0.168v-0.251l0.111-0.195l0.168-0.948l-0.196,0.027l0.112-0.558l0.642-2.261
			l0.949-2.483l0.669-1.172l0.168,0.028l0.224-0.279l0.446,0.083l0.586-0.111l0.195,0.167l0.251-0.251h0.642
			C351.152,54.222,351.645,54.119,352.073,54.119z M339.935,73.764l1.646-3.181l-0.167,0.475l0.084,0.224l-0.503,1.004l-0.446,0.697
			l-0.419,0.67l-0.167,0.391v0.084l-0.195,0.027L339.935,73.764z M345.989,73.819l-0.167-0.027l-0.307,1.172l-0.028,0.753
			c-0.038,0.54-0.121,0.81-0.252,0.81c-0.037,0-0.093-0.037-0.167-0.111l-0.056,0.111l-0.669,4.521l-0.168,0.948l0.111,1.34
			l-0.195,0.363v0.726l-0.056,0.251v0.474c0.093-0.147,0.157-0.241,0.195-0.278c0.408-0.483,0.614-0.939,0.614-1.367v-0.307
			l0.39-2.065l0.028-0.642l0.112-0.726l-0.056-0.111v-0.53l0.111-0.447l-0.224-0.362l0.308-0.447l0.194-1.478l-0.167-0.084
			l0.056-0.308l0.111-1.283l0.085-0.14L345.989,73.819z"/>
		<path fill="#054D87" d="M371.215,53.952l3.628,0.056l0.167,0.083l1.145,0.307l2.01,0.309l0.558,0.334l-2.232-0.363l-1.116-0.167
			l-0.14,0.056l-0.111,0.363l1.981,0.334l0.669,0.168l3.517,0.948l2.958,1.34l0.948,0.559l1.34,0.809l1.395,1.061l0.726,0.167
			l1.396,1.284l0.81,0.921l0.056-0.084c0.315,0.354,0.539,0.744,0.67,1.172l0.194,0.027l0.503,2.149l0.111,0.446l-0.084,0.307v0.531
			l-0.307,0.949l-0.865,1.533l-0.474,0.727l-1.842,1.758l-1.842,1.312l-2.316,1.45l-5.33,2.819l-1.339,0.558l3.99,3.069l3.711,3.069
			l4.046,3.07l1.759,1.534l2.037,1.535l-3.125-1.897l-2.065-1.452l-2.149-1.45l3.488,2.875l1.981,1.45l1.73,1.451l-0.754-0.224
			l-0.418-0.111l-0.559-0.111l0.53,0.334l0.446,0.308l0.252,0.335l0.502,0.334l-2.065-1.172l-2.204-1.144l-2.009-1.172l-0.978-0.559
			l-1.06-0.585l3.404,2.315l1.144,0.587l0.697,0.585l1.954,1.172l-1.005-0.446l-0.084,0.111l-1.115-0.558l-1.145-0.53l-0.168-0.278
			l-7.031-4.912l-0.111-0.167h-0.335v0.167l-3.237-2.567L377.605,83l-3.377-2.455l-0.139,0.278l2.287,2.065l2.567,2.064l2.204,2.065
			l2.429,2.093l-0.837-0.251l-0.028,0.111l0.893,0.67l-1.953-1.339l-0.977-0.586l-1.172-0.587l1.813,1.563l2.01,1.59l-0.111,0.027
			l-6.977-4.353l-3.711-2.177v-0.167l-3.294-2.009l-0.558,0.083l-1.172,0.419l-2.204,0.586l-2.596,8.176l-0.809,1.2
			c-0.131,0.483-0.392,0.921-0.782,1.312c-0.502-0.335-0.753-0.707-0.753-1.116v-0.028l0.111-1.59l0.391-2.344h-0.753l0.753-2.456
			l-0.642,1.646l-0.391,0.781l-0.307,0.948l0.558-2.26l-0.111-0.865l-1.088,3.153l0.139-0.586l0.586-2.847l1.786-6.558l1.256-4.716
			l0.865-3.181l0.362-1.702l0.307-0.474l0.112-0.392l0.028-0.279h0.139l0.559-2.064l0.224-0.446l-0.252,0.948l0.056,0.308
			l0.447-0.447l-0.308,1.257l0.643,0.167l0.39-1.284l-0.139,0.67l-0.251,1.619l1.507-3.963l0.753-2.4l0.475-2.595
			c0.018-0.056,0.213-0.186,0.586-0.391c0.391-0.204,0.716-0.428,0.977-0.67l0.14-0.223l-2.372-0.167l-4.214,0.809h-0.056
			l-1.005,0.53l-0.278,0.027l-0.419,0.279l-0.251,0.111l-0.056,3.461l-0.978,4.771l-0.194,0.864v-1.311l-0.028-1.73l-0.195-0.14
			l-0.14,0.14c-0.094,0.093-0.177,0.195-0.251,0.307c-0.038,0.057-0.075,0.159-0.111,0.308c-0.02,0.093-0.028,0.27-0.028,0.53
			l0.057,3.236l0.027,0.921l-0.111,1.981l0.084,1.061l-0.308,0.195l-0.14,0.502l-0.335,0.643l-0.167,0.921v-0.698v-0.782
			l-0.279-2.594l-0.307-0.559l-0.111,1.925l-0.446,2.764l-0.112-1.396l-0.251-1.98l-0.251-0.084l-0.028,1.396l-0.14,0.056
			l-0.14-0.14l0.112-0.475l-0.14-0.613V73.15l-0.056-0.112l-0.141,0.112v-0.503l-0.194-0.027v0.81l-0.14,2.204l-0.084-1.2
			l-0.14-2.679l-0.334-0.084l0.056-2.566l0.167-1.424l-0.056-1.674l0.167-0.392l0.279-0.809l1.424-1.926
			c0.092-0.203,0.287-0.427,0.586-0.669c0.26-0.205,0.437-0.372,0.529-0.503l0.949-1.479l0.278-0.559l1.257-1.507l0.529-0.586
			l1.842-1.339l1.34-0.754l0.307-0.195l1.646-0.585l1.396-0.364l0.976-0.194l0.503-0.14l1.284-0.167L371.215,53.952z
			 M368.955,79.819l1.674-0.81c-0.521,0.205-0.902,0.326-1.144,0.363l-1.116,0.195l-1.842,0.613L368.955,79.819z M375.429,58.836
			l-1.702-0.196l-1.005,2.79l-5.329,15.348l2.315-0.445l0.53-0.141v0.224l2.931-0.67l6.083-1.813l-0.475,0.279l-0.14,0.307
			l0.251-0.056l-0.81,0.586l0.028,0.613l-0.167,0.084l2.763-1.228l2.26-1.507l3.404-1.507c0.316-0.391,0.539-0.894,0.67-1.507
			l0.307-0.753l-0.14-1.647l-0.726-1.785l0.084-0.085l-0.642-1.366l-1.284-1.2l-1.06-0.865l-0.586-0.446l-3.042-1.562l-2.009-0.726
			L375.429,58.836z M377.187,55.18l0.084-0.167l1.562,0.167l1.451,0.446l-0.446,0.112l-1.702-0.42L377.187,55.18z M381.178,61.653
			l-0.392-0.335l0.112-0.027l1.674,1.032l0.586,0.419l2.064,1.841l1.089,1.675l0.335,0.781l-1.451-2.064l-1.618-1.619
			c-0.205-0.223-0.633-0.539-1.284-0.949l-0.167-0.223c-0.354-0.13-0.717-0.371-1.089-0.726L381.178,61.653z M391.446,62.406
			l0.167,0.195l0.167,0.224l0.196,0.446l0.139,0.251l0.503,1.479l0.027,0.446l0.279,0.977l-0.167,0.643l-0.14,0.056v-0.559
			l-0.084-0.14l-0.083-1.283c0-0.241-0.057-0.559-0.168-0.948c-0.13-0.372-0.242-0.623-0.335-0.754l-0.251-0.418
			C391.659,62.929,391.575,62.724,391.446,62.406z M392.758,67.764l0.446-1.925l0.167-0.112l-0.084,1.062l-0.334,0.837
			c-0.168,0.354-0.354,0.66-0.559,0.921L392.758,67.764z"/>
		<path fill="#054D87" d="M402.161,67.541l0.028-0.195l0.642-0.865l0.781-1.758l0.112-0.502l0.25-1.619l-0.25-1.729l-0.252-0.671
			l-0.837-1.255l-0.837-1.647l-0.335-0.586l0.056-0.139h-0.028l-0.195-0.168l-0.139-0.362h0.223l0.028-0.14l-0.056-0.335
			l0.139-0.028l0.643,1.033l0.084-0.168l-0.503-0.781l-0.168-0.363l-0.39-0.865l0.278,0.447l0.391,0.586l0.195-0.14l-0.307-1.088
			l0.056-0.14l0.167,0.307v0.14l0.084-0.112l0.279,0.252l0.223-0.028l-0.25-0.977l0.111-0.195l-0.084-0.251l0.53-0.111l0.084-0.084
			l0.083,0.391l0.782,1.06l0.111-0.056l0.251-0.977l-0.111-0.474l-0.251-0.502l0.334,0.307l0.224,0.391l0.195,0.195l0.056,0.195
			l0.279-0.027l0.111-0.53l0.224,0.334l0.223-0.111l-0.111-0.474l2.288,4.186l0.195,1.813l-0.167,1.145l-0.447,1.952l-0.139,0.141
			c-0.075,0.39-0.289,0.818-0.642,1.283v0.251c-0.131,0.187-0.242,0.326-0.336,0.418l-0.278,0.447
			c-0.075,0.131-0.326,0.362-0.754,0.698l0.028-0.308l-0.028-0.252l-1.311,1.787h-0.196c-0.409,0.521-0.68,0.828-0.809,0.921
			C402.607,67.318,402.422,67.43,402.161,67.541z"/>
		<path fill="#054D87" d="M410.197,88.358l0.112,0.027l0.335,0.056h1.702l-3.377-0.753l-0.307-0.195
			c-0.446-0.204-0.67-0.316-0.67-0.335c0.02,0,0.052,0.01,0.098,0.027c0.047,0.02,0.094,0.038,0.14,0.056
			c0.047,0.021,0.182,0.076,0.404,0.168l0.391-0.084l0.112,0.028l0.027-0.084l0.838,0.195l0.083-0.083l0.335,0.167h0.224
			l1.256,0.084l0.056,0.14l0.419-0.056l-0.363-0.056v-0.112c-0.484-0.093-0.894-0.204-1.229-0.335l-0.25-0.028l-0.028-0.084
			l2.93,0.531h0.614l-0.028-0.084l4.381,0.362l0.503-0.027l2.204-0.084l-0.028-0.111l2.875-0.14l1.842-0.308l0.446-0.083
			l-0.643-2.428l-1.758-3.739l-4.018-7.228l-1.646-3.098l0.307,0.335l1.451,2.567l1.423,2.456l0.67,1.507l1.451,2.371l0.586,0.978
			l0.418,0.893l0.057,0.391l0.111,0.168l-0.027,0.084l0.781,1.59l0.335,0.503l-0.224,0.083l0.726,2.399l0.084,0.14l0.391-0.084
			l-0.141-0.083l0.141-0.195l-0.141-1.005l-0.111-0.027l-0.139-0.53l-0.141,0.027l-0.027-0.362l0.027,0.056l-0.111-0.418
			l-0.111-0.084l-0.028-0.195h0.112l-0.168-0.503l-1.088-2.343l-0.643-1.257l-0.836-1.534l-0.726-1.312l-1.173-1.981l-1.004-1.73
			l-0.559-1.032l-1.311-2.455l-1.34-2.791l-0.726-1.786l-0.475-1.534l-0.335-2.261l0.195,0.335l0.224,0.14l0.027,0.391l0.614,0.503
			l-0.195-1.368l0.111,0.028l0.056-1.618l0.726,2.064v-0.278c-0.019-0.037-0.028-0.093-0.028-0.168
			c-0.074-0.242-0.111-0.419-0.111-0.53l0.111-1.953l0.754-0.698l0.475-1.283l0.362-0.391l0.168-0.363h0.167l0.335-0.278
			l0.195-0.391l-0.419,1.897l0.196,2.121l1.591-1.87l0.809-0.977l0.083-0.195l-0.139-0.084c0.371-0.521,0.893-0.901,1.562-1.144
			l1.423-0.447l0.279-0.223h-0.251l0.111-0.14l-0.056-0.14l0.251-0.14l0.475-0.112l0.224-0.056l0.139,0.028l0.503-0.14l0.224,0.028
			c0.446-0.13,0.753-0.195,0.921-0.195c0.073,0,0.167-0.065,0.278-0.195l-1.116,0.028l0.782-0.14l2.566,0.223l1.535,0.474
			l1.534,0.922l0.057,0.14l0.194,0.027l0.195,0.28l-1.841-1.201l-0.308-0.111l-0.753-0.168l0.613,0.392l1.228,0.781l1.145,1.032
			l0.391,0.419l-0.195,0.027l0.67,0.922l-0.084,0.111l-0.084-0.195l-0.251-0.112l-1.312-1.423l1.283,1.813l0.754,1.172l0.224,0.307
			l0.195,0.028l0.391,0.921l0.362,2.429l-0.251-0.168l-0.362-1.312l-0.586-1.785l-0.167,0.056l0.892,2.901l0.168,0.671l-0.279-0.028
			l-0.167-0.084l-0.112,0.251l0.168,0.419l-0.224,0.726l-0.027,0.419l-0.056-0.195l-0.251-0.447l-0.698-1.534l-0.14,0.112
			l0.335,1.422c0.037,0.168,0.056,0.307,0.056,0.419c0.019,0.111,0.074,0.4,0.168,0.864c-0.075-0.13-0.14-0.307-0.195-0.529
			c-0.298-0.763-0.475-1.199-0.53-1.312l-0.028,0.307l-0.056-0.307l-0.474-0.391l-0.224,0.083l0.446,1.284l-0.195-0.027l-0.81-1.424
			l0.084,0.446l0.391,1.033l-0.278-0.252l-0.531-1.312l0.028-0.056l-0.224-0.278l-0.056-0.112l-0.139,0.084l-0.252-0.503
			l-0.837-0.753l-1.061-1.089l-0.921-0.78h-0.195l-1.088-0.67l-1.758-0.475h-0.782h-2.26l-0.67,0.252
			c-0.186,0.056-0.307,0.083-0.362,0.083c-0.111,0-0.326-0.037-0.643-0.111l-1.032,1.145l0.14,0.056l-0.056,1.395l0.893,2.12
			l0.977,2.205l2.735,4.883l1.061,1.675l2.148,3.823l0.446,1.032l1.256,2.483l0.14,0.446l0.558,2.01l0.084,0.418L430.4,84.34
			l-0.809,1.396l-0.447,0.669l0.252,0.141l-0.391,0.501l-1.228,1.005l-0.112,0.308l0.195-0.056v0.111l-1.869,1.145l0.056,0.111
			l-0.698,0.474l-0.224,0.084l-3.905,1.396l-0.447,0.056l0.056,0.112l-0.335-0.084l-0.781,0.223h-0.139l-0.112,0.056l-1.367,0.111
			l-2.037,0.168l-0.558-0.056l-2.456-0.14l1.813-0.056h2.121l-1.98-0.111l-1.257-0.224l-0.446-0.027l-0.502-0.112l0.083-0.084
			l2.428,0.224h0.838c0.223,0.037,0.409,0.056,0.558,0.056c0.168,0,0.354-0.037,0.559-0.111h1.061l1.115-0.279l0.279-0.112
			l1.033-0.167l0.027-0.056l-1.283,0.084l-0.67,0.056l-2.344,0.279h-1.73l-0.502-0.391l-1.116-0.111v-0.112h-0.559l-0.613-0.139
			l-1.703-0.335l-0.529-0.112l-1.2-0.529l4.939,0.474l0.893-0.056l-0.056-0.168l-1.172-0.139l-3.655-0.419l-0.111-0.14l0.864,0.111
			v-0.111l0.977,0.084l-2.26-0.446l-0.084-0.251l-1.702-0.42l0.335,0.028l0.083-0.195l0.949,0.195l-1.451-0.474l2.232,0.418
			L410.197,88.358z M409.528,86.153l-0.391-0.14h0.362l0.335,0.084l0.056-0.084l0.978,0.335l0.223-0.083l3.822,0.613l2.624,0.223
			l0.111,0.057l0.586,0.083h-1.144l-1.479-0.083h-1.032l-1.479-0.279L409.528,86.153z M421.248,73.736l-0.168-0.084l0.224,0.893
			l4.27,7.646l1.423,3.377c0.037,0.445,0.167,0.836,0.391,1.171l-0.056-1.45l-0.362-1.173l-0.251,0.195l-0.279-0.446l-0.642-1.646
			l-0.921-1.729h-0.028l-0.335-0.698l-0.028-0.251l-0.111,0.028l-0.725-1.256l0.167,0.084l-0.195-0.111l-0.53-1.117l-1.033-1.841
			l-0.501-1.088l-0.224-0.224L421.248,73.736z M423.257,76.889l1.619,3.014l0.781,1.536l0.391,0.725l0.307,0.14l-0.279-0.558
			l-1.088-2.037l-0.419-0.81l-0.111-0.084l-0.223-0.474l-0.363-0.531L423.257,76.889z M425.964,77.447l-1.897-3.432l-0.195,0.195
			l1.061,1.869l-0.195,0.056v0.224l0.809,1.506l1.061,1.759l1.34,3.014l0.613,2.371l-0.083,1.116
			c0.297-0.297,0.446-0.678,0.446-1.144l0.056-0.111l-0.14-0.028l-0.279-1.702l-0.864-2.65L425.964,77.447z M425.378,79.902
			l-1.396-2.482l0.363,0.893l0.893,1.59l0.056,0.224l0.195,0.14l-0.056,0.028l0.084,0.084l0.111,0.334l0.53,0.475L425.378,79.902z
			 M427.052,81.521l-1.032-2.009l1.088,2.566l0.698,1.981l0.251,2.037l-0.028,0.335l0.14-1.729L427.052,81.521z M426.913,75.494
			v0.195l0.418,0.67l0.921,1.674l1.172,2.261l0.697,2.566v0.587l-0.056,0.056l0.112,0.167c0.018-0.093,0.027-0.26,0.027-0.502
			s-0.065-0.558-0.195-0.949l-0.167-0.977l-0.475-1.507l-0.586-1.199L428.057,77l-0.697-1.06l-0.279-0.474
			c0-0.019-0.019-0.028-0.056-0.028C426.95,75.438,426.913,75.457,426.913,75.494z"/>
	</g>
</g>
<g>
	<path fill="#727272" d="M180.603,112.888c-1.131,2.194-1.917,3.947-2.358,5.26c-0.259,0.761-0.437,1.184-0.531,1.27
		c-0.12,0.121-0.307,0.182-0.557,0.182c-0.207,0-0.367-0.069-0.479-0.207c-0.104-0.13-0.155-0.264-0.155-0.401
		c0-0.406,0.389-1.485,1.166-3.239c0.553-1.261,1.286-2.695,2.203-4.302c-0.121-0.396-0.183-0.699-0.183-0.906
		c0-0.294,0.113-0.526,0.338-0.7c0.112-0.086,0.232-0.129,0.362-0.129c0.12,0,0.275,0.043,0.466,0.129
		c0.13-0.225,0.609-1.049,1.438-2.474c0.743-1.442,1.152-2.289,1.231-2.54c-0.234,0.104-0.419,0.195-0.558,0.271
		c-0.146,0.079-0.263,0.117-0.35,0.117c-0.113,0-0.208-0.06-0.285-0.181c-0.061-0.096-0.091-0.203-0.091-0.325
		c0-0.431,0.289-0.811,0.868-1.14c0.405-0.233,0.803-0.428,1.191-0.583c0.113-0.405,0.204-0.674,0.272-0.803
		c0.121-0.233,0.315-0.35,0.583-0.35c0.294,0,0.548,0.163,0.765,0.492c0.405-0.121,0.792-0.212,1.158-0.272
		c0.368-0.061,0.716-0.09,1.044-0.09c1.001,0,1.762,0.284,2.28,0.854c0.492,0.544,0.738,1.205,0.738,1.982
		c0,1.27-0.496,2.47-1.49,3.602c-0.933,1.054-2.176,1.86-3.73,2.422c-1.192,0.433-2.367,0.648-3.524,0.648
		c-0.198,0-0.501-0.013-0.907-0.039c0.139,0.526,0.324,1.054,0.558,1.58c0.405,0.855,0.984,2.082,1.736,3.681
		c0.216,0.422,0.569,1.027,1.062,1.813c0.13,0.207,0.195,0.397,0.195,0.569c0,0.165-0.096,0.32-0.286,0.467
		c-0.197,0.138-0.366,0.208-0.505,0.208c-0.216,0-0.444-0.229-0.687-0.688c-0.121-0.215-0.272-0.483-0.453-0.803
		C182.464,117.167,181.622,115.375,180.603,112.888z M182.183,110.09c0.328,0.017,0.574,0.024,0.738,0.024
		c1.788,0,3.46-0.626,5.015-1.877c0.683-0.554,1.234-1.192,1.658-1.918c0.268-0.449,0.401-0.925,0.401-1.426
		c0-0.509-0.161-0.892-0.486-1.146c-0.322-0.255-0.809-0.382-1.457-0.382c-0.587,0-1.179,0.112-1.775,0.337
		c-0.232,0.086-0.565,0.229-0.997,0.428c-0.302,0.691-0.794,1.69-1.477,2.999C183.119,108.438,182.581,109.424,182.183,110.09z"/>
	<path fill="#727272" d="M188.907,116.101v0.233c0,0.189,0.048,0.354,0.143,0.492c0.216,0.319,0.569,0.479,1.062,0.479
		c1.079,0,2.328-0.829,3.744-2.488c0.25-0.284,0.462-0.427,0.634-0.427c0.096,0,0.182,0.048,0.26,0.143
		c0.052,0.069,0.078,0.134,0.078,0.194c0,0.337-0.415,0.906-1.244,1.71c-0.648,0.63-1.338,1.145-2.072,1.541
		c-0.735,0.397-1.417,0.597-2.048,0.597c-0.647,0-1.157-0.225-1.528-0.673c-0.25-0.312-0.376-0.735-0.376-1.271
		c0-1.46,0.687-2.889,2.06-4.288c1.114-1.141,2.086-1.71,2.915-1.71c0.225,0,0.428,0.068,0.609,0.207
		c0.225,0.182,0.337,0.419,0.337,0.712c0,0.458-0.212,1.02-0.635,1.685C191.973,114.619,190.66,115.574,188.907,116.101z
		 M189.192,115.09c0.604-0.207,1.079-0.44,1.425-0.699c0.604-0.467,1.084-0.993,1.438-1.581c0.129-0.207,0.194-0.393,0.194-0.557
		c0-0.173-0.082-0.259-0.246-0.259c-0.225,0-0.544,0.168-0.959,0.505C190.303,113.096,189.685,113.959,189.192,115.09z"/>
	<path fill="#727272" d="M197.574,114.145c0.112-0.104,0.22-0.208,0.324-0.312c1.805-1.762,3.015-2.643,3.628-2.643
		c0.336,0,0.505,0.187,0.505,0.558c0,0.259-0.151,0.565-0.453,0.919c-1.65,1.927-2.475,3.624-2.475,5.092
		c0,0.475,0.129,0.929,0.388,1.36c0.121,0.198,0.183,0.354,0.183,0.467c0,0.104-0.053,0.203-0.156,0.298
		c-0.113,0.121-0.246,0.182-0.401,0.182c-0.354,0-0.651-0.225-0.894-0.674c-0.234-0.423-0.35-0.938-0.35-1.541
		c0-1.167,0.439-2.458,1.32-3.874c-1.175,0.751-2.267,2.081-3.277,3.989c-0.259,0.458-0.535,0.688-0.829,0.688
		c-0.146,0-0.268-0.052-0.362-0.155c-0.121-0.122-0.183-0.277-0.183-0.468c0-0.466,0.532-1.688,1.594-3.666
		c0.57-1.07,1.021-1.848,1.348-2.332c0.328-0.475,0.608-0.713,0.843-0.713c0.112,0,0.22,0.052,0.323,0.156
		c0.121,0.121,0.182,0.26,0.182,0.415c0,0.189-0.126,0.462-0.376,0.815C198.092,113.233,197.798,113.712,197.574,114.145z"/>
	<path fill="#727272" d="M206.747,110.245c-0.562,0.872-1.079,1.849-1.555,2.927c-0.683,1.538-1.023,2.687-1.023,3.446
		c0,0.217,0.045,0.381,0.137,0.493c0.09,0.112,0.227,0.168,0.407,0.168c0.432,0,0.955-0.406,1.567-1.218
		c0.389-0.501,0.734-1.002,1.036-1.503c0.165-0.285,0.341-0.427,0.531-0.427c0.113,0,0.208,0.038,0.286,0.116
		c0.068,0.077,0.104,0.155,0.104,0.232c0,0.32-0.419,1.032-1.257,2.138c-1.002,1.33-1.918,1.996-2.747,1.996
		c-0.44,0-0.807-0.203-1.101-0.608c-0.183-0.26-0.272-0.627-0.272-1.102c0-1.046,0.302-2.263,0.907-3.653
		c0.146-0.346,0.553-1.18,1.218-2.501c-0.234,0.06-0.411,0.091-0.532,0.091c-0.181,0-0.34-0.043-0.479-0.13
		c-0.19-0.121-0.285-0.271-0.285-0.453c0-0.216,0.126-0.389,0.376-0.519c0.068-0.034,0.388-0.091,0.958-0.169
		c0.208-0.033,0.51-0.116,0.907-0.245c0.302-0.544,0.794-1.283,1.477-2.216c0.38-0.519,0.645-0.855,0.791-1.011
		c0.207-0.216,0.389-0.323,0.544-0.323c0.112,0,0.224,0.06,0.337,0.181c0.104,0.112,0.155,0.226,0.155,0.337
		c0,0.226-0.242,0.67-0.726,1.335c-0.319,0.432-0.558,0.781-0.713,1.05c0.959-0.26,1.646-0.389,2.061-0.389
		c0.476,0,0.712,0.198,0.712,0.596c0,0.199-0.081,0.345-0.246,0.44c-0.086,0.052-0.311,0.095-0.673,0.129
		c-0.147-0.008-0.8,0.155-1.956,0.493C207.373,110.042,207.058,110.142,206.747,110.245z"/>
	<path fill="#727272" d="M212.292,116.45c-0.285,0.502-0.566,0.925-0.842,1.27c-0.545,0.675-1.085,1.011-1.62,1.011
		c-0.466,0-0.829-0.22-1.088-0.66c-0.165-0.285-0.246-0.622-0.246-1.011c0-0.959,0.302-2.017,0.906-3.175
		c0.674-1.286,1.486-2.275,2.437-2.966c0.621-0.45,1.222-0.674,1.801-0.674c0.362,0,0.665,0.111,0.907,0.337
		c0.207,0.199,0.311,0.423,0.311,0.673c0,0.19-0.074,0.453-0.221,0.791c0.13,0.182,0.194,0.341,0.194,0.479
		c0,0.182-0.12,0.479-0.363,0.895c-0.249,0.424-0.501,0.984-0.751,1.685c-0.268,0.743-0.401,1.339-0.401,1.787
		c0,0.363,0.107,0.661,0.324,0.895c0.061,0.06,0.236,0.159,0.53,0.298c0.217,0.104,0.325,0.285,0.325,0.544
		c0,0.164-0.062,0.298-0.183,0.401c-0.129,0.112-0.28,0.169-0.453,0.169c-0.466,0-0.867-0.207-1.205-0.622
		c-0.275-0.337-0.414-0.76-0.414-1.27C212.24,117.132,212.257,116.848,212.292,116.45z M213.911,112.188
		c-0.104-0.189-0.216-0.33-0.337-0.421c-0.12-0.09-0.25-0.136-0.388-0.136c-0.657,0-1.37,0.574-2.138,1.724
		c-0.847,1.27-1.271,2.345-1.271,3.226c0,0.216,0.041,0.38,0.123,0.492c0.083,0.111,0.205,0.169,0.369,0.169
		c0.415,0,0.898-0.44,1.451-1.322c0.312-0.483,0.696-1.196,1.153-2.138c0.302-0.613,0.522-1.02,0.661-1.218
		C213.604,112.46,213.73,112.335,213.911,112.188z"/>
	<path fill="#727272" d="M227.204,111.022c0.864-1.807,1.68-3.378,2.448-4.717c0.742-1.295,1.248-2.111,1.517-2.448
		c0.294-0.371,0.569-0.558,0.828-0.558c0.139,0,0.264,0.058,0.376,0.169c0.104,0.112,0.156,0.233,0.156,0.363
		c0,0.198-0.147,0.531-0.441,0.997c-1.252,2.021-2.4,4.072-3.446,6.154c-1.209,2.427-1.813,4.244-1.813,5.454
		c0,0.492,0.095,0.881,0.285,1.166c0.035,0.061,0.19,0.199,0.467,0.414c0.051,0.044,0.077,0.13,0.077,0.26
		c0,0.173-0.066,0.33-0.201,0.473c-0.133,0.143-0.282,0.214-0.446,0.214c-0.198,0-0.419-0.121-0.661-0.362
		c-0.346-0.346-0.553-0.743-0.622-1.192c-0.025-0.189-0.056-0.544-0.091-1.062c-0.906,1.632-1.771,2.448-2.591,2.448
		c-0.475,0-0.854-0.267-1.14-0.803c-0.19-0.354-0.285-0.756-0.285-1.205c0-1.347,0.492-2.703,1.477-4.067
		c0.977-1.349,2.025-2.021,3.148-2.021C226.557,110.698,226.876,110.806,227.204,111.022z M226.764,112.084
		c-0.233-0.155-0.437-0.232-0.609-0.232c-0.726,0-1.412,0.444-2.06,1.334c-0.855,1.157-1.282,2.275-1.282,3.356
		c0,0.128,0.025,0.25,0.077,0.362c0.104,0.215,0.259,0.323,0.467,0.323c0.302,0,0.669-0.293,1.101-0.881
		c0.579-0.777,1.114-1.697,1.607-2.759c0.172-0.363,0.34-0.727,0.505-1.089l0.116-0.246L226.764,112.084z"/>
	<path fill="#727272" d="M229.925,116.101v0.233c0,0.189,0.048,0.354,0.143,0.492c0.216,0.319,0.569,0.479,1.062,0.479
		c1.079,0,2.328-0.829,3.744-2.488c0.25-0.284,0.462-0.427,0.635-0.427c0.095,0,0.182,0.048,0.259,0.143
		c0.052,0.069,0.078,0.134,0.078,0.194c0,0.337-0.415,0.906-1.244,1.71c-0.648,0.63-1.338,1.145-2.072,1.541
		c-0.735,0.397-1.417,0.597-2.048,0.597c-0.647,0-1.157-0.225-1.528-0.673c-0.25-0.312-0.376-0.735-0.376-1.271
		c0-1.46,0.687-2.889,2.06-4.288c1.114-1.141,2.087-1.71,2.915-1.71c0.225,0,0.429,0.068,0.609,0.207
		c0.225,0.182,0.337,0.419,0.337,0.712c0,0.458-0.212,1.02-0.635,1.685C232.991,114.619,231.678,115.574,229.925,116.101z
		 M230.21,115.09c0.604-0.207,1.079-0.44,1.425-0.699c0.604-0.467,1.085-0.993,1.438-1.581c0.129-0.207,0.194-0.393,0.194-0.557
		c0-0.173-0.082-0.259-0.246-0.259c-0.225,0-0.544,0.168-0.959,0.505C231.32,113.096,230.702,113.959,230.21,115.09z"/>
	<path fill="#727272" d="M251.988,111.437c-1.961,0.389-3.602,0.847-4.924,1.373c-0.794,1.167-1.667,2.565-2.616,4.198l-0.688,1.205
		c-0.12,0.215-0.306,0.526-0.557,0.933c-0.275,0.475-0.566,0.713-0.868,0.713c-0.164,0-0.302-0.065-0.414-0.195
		c-0.113-0.111-0.169-0.237-0.169-0.376c0-0.241,0.324-0.928,0.972-2.06c0.354-0.613,0.89-1.48,1.606-2.604
		c0.276-0.433,0.496-0.786,0.661-1.062c-0.519,0.146-0.993,0.315-1.426,0.505c-0.207,0.096-0.379,0.143-0.518,0.143
		c-0.172,0-0.307-0.077-0.401-0.232c-0.069-0.096-0.104-0.208-0.104-0.337c0-0.294,0.104-0.501,0.311-0.623
		c0.337-0.207,0.941-0.444,1.813-0.712c0.647-0.207,1.162-0.397,1.542-0.569c0.182-0.226,0.656-0.886,1.425-1.983
		c0.328-0.475,1.261-1.598,2.799-3.367c1.104-1.296,2.245-2.501,3.42-3.615c0.683-0.656,1.205-0.984,1.568-0.984
		c0.224,0,0.418,0.09,0.583,0.271c0.138,0.164,0.207,0.345,0.207,0.544c0,0.242-0.121,0.665-0.363,1.271
		c-0.414,1.062-0.812,2.197-1.191,3.406c-0.328,1.071-0.548,1.893-0.661,2.462c0.155,0,0.26-0.004,0.312-0.013
		c0.25-0.009,0.457-0.013,0.621-0.013c0.502,0,0.751,0.189,0.751,0.569c0,0.165-0.053,0.326-0.161,0.485
		c-0.107,0.161-0.23,0.258-0.369,0.292c-0.052,0.018-0.194,0.026-0.428,0.026c-0.492,0-0.858,0.03-1.101,0.091
		c-0.207,0.613-0.536,2.181-0.985,4.703c-0.232,1.676-0.346,2.703-0.337,3.083c0,0.622-0.186,0.933-0.557,0.933
		c-0.294,0-0.522-0.15-0.687-0.453c-0.121-0.208-0.182-0.487-0.182-0.842c0-1.192,0.211-2.799,0.635-4.82
		C251.725,112.762,251.885,111.98,251.988,111.437z M252.351,110.038c0.078-0.251,0.276-0.92,0.597-2.009
		c0.077-0.285,0.275-0.851,0.596-1.696c0.32-0.874,0.574-1.573,0.765-2.1c-0.562,0.371-1.132,0.863-1.71,1.477
		c-2.039,2.193-3.477,3.986-4.314,5.377c0.319-0.078,1.006-0.272,2.06-0.583C250.645,110.417,251.314,110.262,252.351,110.038z"/>
	<path fill="#727272" d="M258.245,116.606c-0.371,0.518-0.699,0.932-0.983,1.244c-0.502,0.552-0.998,0.828-1.49,0.828
		c-0.424,0-0.752-0.189-0.985-0.569c-0.164-0.269-0.246-0.588-0.246-0.959c0-1.114,0.476-2.393,1.426-3.835
		c0.44-0.674,0.877-1.188,1.309-1.542c0.337-0.285,0.612-0.428,0.829-0.428c0.121,0,0.232,0.052,0.336,0.155
		c0.087,0.096,0.131,0.19,0.131,0.286c0,0.163-0.16,0.431-0.48,0.803c-0.717,0.854-1.261,1.641-1.632,2.358
		c-0.432,0.837-0.647,1.494-0.647,1.969c0,0.121,0.027,0.214,0.084,0.279c0.057,0.064,0.136,0.097,0.239,0.097
		c0.44,0,1.054-0.631,1.84-1.892c0.406-0.656,0.756-1.383,1.05-2.177c0.155-0.432,0.358-0.816,0.608-1.153
		c0.242-0.303,0.479-0.453,0.713-0.453c0.13,0,0.246,0.056,0.35,0.169c0.112,0.12,0.169,0.254,0.169,0.4
		c0,0.312-0.298,1.012-0.895,2.1c-0.405,0.751-0.608,1.377-0.608,1.878c0,0.536,0.142,0.994,0.427,1.373
		c0.078,0.104,0.315,0.269,0.713,0.492c0.19,0.113,0.285,0.294,0.285,0.545c0,0.155-0.066,0.289-0.2,0.401
		c-0.135,0.112-0.296,0.169-0.486,0.169c-0.432,0-0.825-0.173-1.179-0.519c-0.32-0.311-0.522-0.76-0.609-1.348
		C258.294,117.202,258.271,116.977,258.245,116.606z"/>
	<path fill="#727272" d="M266.266,110.245c-0.562,0.872-1.08,1.849-1.555,2.927c-0.683,1.538-1.023,2.687-1.023,3.446
		c0,0.217,0.045,0.381,0.137,0.493c0.089,0.112,0.226,0.168,0.407,0.168c0.432,0,0.954-0.406,1.567-1.218
		c0.389-0.501,0.734-1.002,1.037-1.503c0.164-0.285,0.34-0.427,0.53-0.427c0.113,0,0.208,0.038,0.285,0.116
		c0.069,0.077,0.104,0.155,0.104,0.232c0,0.32-0.418,1.032-1.257,2.138c-1.001,1.33-1.917,1.996-2.746,1.996
		c-0.44,0-0.808-0.203-1.102-0.608c-0.181-0.26-0.271-0.627-0.271-1.102c0-1.046,0.302-2.263,0.906-3.653
		c0.147-0.346,0.553-1.18,1.218-2.501c-0.232,0.06-0.41,0.091-0.53,0.091c-0.182,0-0.342-0.043-0.48-0.13
		c-0.19-0.121-0.284-0.271-0.284-0.453c0-0.216,0.125-0.389,0.376-0.519c0.068-0.034,0.389-0.091,0.958-0.169
		c0.207-0.033,0.509-0.116,0.907-0.245c0.302-0.544,0.794-1.283,1.477-2.216c0.38-0.519,0.645-0.855,0.791-1.011
		c0.207-0.216,0.388-0.323,0.544-0.323c0.112,0,0.225,0.06,0.337,0.181c0.104,0.112,0.155,0.226,0.155,0.337
		c0,0.226-0.243,0.67-0.726,1.335c-0.32,0.432-0.558,0.781-0.713,1.05c0.959-0.26,1.646-0.389,2.061-0.389
		c0.475,0,0.713,0.198,0.713,0.596c0,0.199-0.082,0.345-0.246,0.44c-0.088,0.052-0.312,0.095-0.675,0.129
		c-0.146-0.008-0.799,0.155-1.956,0.493C266.892,110.042,266.576,110.142,266.266,110.245z"/>
	<path fill="#727272" d="M273.002,110.231c0.709,0,1.062,0.433,1.062,1.296c0,1.148-0.531,2.604-1.594,4.366
		c-1.156,1.909-2.275,2.863-3.355,2.863c-0.501,0-0.868-0.234-1.101-0.699c-0.121-0.234-0.182-0.514-0.182-0.843
		c0-1.105,0.38-2.306,1.141-3.602c0.708-1.2,1.541-2.133,2.5-2.799C272.034,110.427,272.545,110.231,273.002,110.231z
		 M271.654,115.129c-0.216-0.173-0.323-0.307-0.323-0.401c0-0.069,0.139-0.26,0.415-0.57c0.776-0.872,1.165-1.575,1.165-2.111
		c0-0.069-0.021-0.139-0.064-0.207c-0.068-0.131-0.178-0.195-0.324-0.195c-0.276,0-0.683,0.268-1.218,0.804
		c-0.69,0.691-1.217,1.403-1.58,2.138c-0.424,0.838-0.635,1.533-0.635,2.085c0,0.147,0.039,0.277,0.116,0.39
		c0.113,0.155,0.255,0.233,0.428,0.233c0.415,0,0.859-0.312,1.334-0.934c0.208-0.259,0.376-0.526,0.506-0.803
		C271.603,115.279,271.664,115.138,271.654,115.129z"/>
	<path fill="#727272" d="M277.873,111.787c0.734-0.623,1.396-0.934,1.983-0.934c0.362,0,0.66,0.151,0.894,0.453
		c0.216,0.268,0.323,0.579,0.323,0.934c0,0.673-0.22,1.489-0.66,2.448c-0.493,1.062-1.205,2.052-2.138,2.967
		c-0.769,0.76-1.503,1.14-2.203,1.14c-0.259,0-0.494-0.046-0.705-0.142c-0.212-0.096-0.399-0.238-0.564-0.428
		c-0.068,0.121-0.112,0.198-0.129,0.233c-0.146,0.318-0.248,0.514-0.306,0.583c-0.056,0.068-0.145,0.104-0.265,0.104
		c-0.155,0-0.303-0.091-0.44-0.272c-0.095-0.12-0.143-0.251-0.143-0.389c0-0.241,0.496-1.464,1.489-3.667
		c1.392-3.074,3.002-6.132,4.833-9.172c0.742-1.244,1.196-1.974,1.36-2.19c0.182-0.259,0.35-0.388,0.506-0.388
		c0.19,0,0.358,0.095,0.505,0.284c0.095,0.122,0.143,0.265,0.143,0.429c0,0.181-0.082,0.41-0.246,0.687
		c-0.035,0.06-0.307,0.505-0.816,1.334C279.73,108.22,278.59,110.214,277.873,111.787z M275.689,117.396
		c0.135,0.086,0.275,0.129,0.422,0.129c0.752,0,1.546-0.652,2.384-1.956c0.389-0.587,0.696-1.17,0.92-1.749
		c0.199-0.518,0.298-0.902,0.298-1.153c0-0.173-0.039-0.3-0.116-0.382c-0.078-0.082-0.198-0.123-0.362-0.123
		c-0.398,0-0.877,0.272-1.438,0.816c-0.561,0.535-1.114,1.309-1.658,2.319c-0.26,0.483-0.483,0.938-0.674,1.36l-0.168,0.35
		C275.425,117.18,275.557,117.31,275.689,117.396z"/>
	<path fill="#727272" d="M285.154,116.606c-0.371,0.518-0.699,0.932-0.984,1.244c-0.501,0.552-0.998,0.828-1.49,0.828
		c-0.423,0-0.751-0.189-0.984-0.569c-0.164-0.269-0.246-0.588-0.246-0.959c0-1.114,0.476-2.393,1.425-3.835
		c0.441-0.674,0.878-1.188,1.309-1.542c0.337-0.285,0.613-0.428,0.83-0.428c0.12,0,0.232,0.052,0.336,0.155
		c0.087,0.096,0.13,0.19,0.13,0.286c0,0.163-0.16,0.431-0.479,0.803c-0.717,0.854-1.261,1.641-1.632,2.358
		c-0.432,0.837-0.648,1.494-0.648,1.969c0,0.121,0.028,0.214,0.085,0.279c0.056,0.064,0.136,0.097,0.239,0.097
		c0.44,0,1.054-0.631,1.839-1.892c0.406-0.656,0.756-1.383,1.05-2.177c0.155-0.432,0.359-0.816,0.609-1.153
		c0.242-0.303,0.479-0.453,0.713-0.453c0.129,0,0.246,0.056,0.35,0.169c0.112,0.12,0.168,0.254,0.168,0.4
		c0,0.312-0.298,1.012-0.894,2.1c-0.406,0.751-0.608,1.377-0.608,1.878c0,0.536,0.142,0.994,0.427,1.373
		c0.078,0.104,0.315,0.269,0.713,0.492c0.19,0.113,0.285,0.294,0.285,0.545c0,0.155-0.067,0.289-0.2,0.401
		c-0.135,0.112-0.296,0.169-0.486,0.169c-0.433,0-0.826-0.173-1.18-0.519c-0.319-0.311-0.521-0.76-0.608-1.348
		C285.203,117.202,285.181,116.977,285.154,116.606z"/>
	<path fill="#727272" d="M294.379,109.986c0.535,0,0.937,0.095,1.205,0.284c0.268,0.189,0.401,0.479,0.401,0.868
		c0,0.51-0.19,1.002-0.569,1.477c-0.363,0.449-0.907,0.812-1.633,1.089c-0.397,0.146-0.729,0.22-0.998,0.22
		c-0.362,0-0.544-0.16-0.544-0.479c0-0.215,0.104-0.38,0.312-0.492c0.052-0.025,0.346-0.099,0.881-0.22
		c0.319-0.069,0.612-0.221,0.881-0.453c0.232-0.199,0.35-0.416,0.35-0.648c0-0.182-0.052-0.315-0.155-0.401s-0.26-0.13-0.467-0.13
		c-0.501,0-1.054,0.203-1.658,0.608c-0.699,0.458-1.05,1.002-1.05,1.633c0,0.449,0.23,1.011,0.688,1.685
		c0.509,0.734,0.764,1.355,0.764,1.865c0,0.761-0.337,1.356-1.01,1.788c-0.415,0.268-0.886,0.401-1.412,0.401
		c-0.83,0-1.461-0.298-1.892-0.894c-0.303-0.423-0.453-0.924-0.453-1.503c0-0.674,0.172-1.239,0.518-1.697
		c0.225-0.303,0.457-0.453,0.699-0.453c0.217,0,0.324,0.086,0.324,0.26c0,0.068-0.038,0.172-0.117,0.311
		c-0.198,0.371-0.298,0.808-0.298,1.308c0,0.424,0.152,0.782,0.454,1.075c0.269,0.26,0.574,0.389,0.92,0.389
		c0.337,0,0.6-0.111,0.79-0.337c0.155-0.189,0.232-0.431,0.232-0.725c0-0.363-0.207-0.834-0.621-1.412
		c-0.57-0.795-0.854-1.517-0.854-2.164c0-0.863,0.47-1.628,1.412-2.293C292.393,110.305,293.359,109.986,294.379,109.986z"/>
	<path fill="#727272" d="M296.192,116.101v0.233c0,0.189,0.048,0.354,0.144,0.492c0.216,0.319,0.569,0.479,1.062,0.479
		c1.08,0,2.328-0.829,3.745-2.488c0.25-0.284,0.462-0.427,0.635-0.427c0.094,0,0.181,0.048,0.259,0.143
		c0.052,0.069,0.077,0.134,0.077,0.194c0,0.337-0.414,0.906-1.243,1.71c-0.648,0.63-1.339,1.145-2.073,1.541
		c-0.734,0.397-1.416,0.597-2.047,0.597c-0.648,0-1.157-0.225-1.528-0.673c-0.25-0.312-0.376-0.735-0.376-1.271
		c0-1.46,0.687-2.889,2.06-4.288c1.114-1.141,2.086-1.71,2.915-1.71c0.225,0,0.428,0.068,0.609,0.207
		c0.224,0.182,0.336,0.419,0.336,0.712c0,0.458-0.211,1.02-0.634,1.685C299.26,114.619,297.946,115.574,296.192,116.101z
		 M296.479,115.09c0.604-0.207,1.078-0.44,1.425-0.699c0.604-0.467,1.084-0.993,1.438-1.581c0.13-0.207,0.195-0.393,0.195-0.557
		c0-0.173-0.083-0.259-0.247-0.259c-0.224,0-0.544,0.168-0.958,0.505C297.588,113.096,296.971,113.959,296.479,115.09z"/>
	<path fill="#727272" d="M308.41,109.986c0.535,0,0.937,0.095,1.205,0.284c0.268,0.189,0.401,0.479,0.401,0.868
		c0,0.51-0.19,1.002-0.57,1.477c-0.362,0.449-0.906,0.812-1.633,1.089c-0.397,0.146-0.729,0.22-0.997,0.22
		c-0.362,0-0.544-0.16-0.544-0.479c0-0.215,0.104-0.38,0.311-0.492c0.053-0.025,0.347-0.099,0.881-0.22
		c0.32-0.069,0.613-0.221,0.882-0.453c0.232-0.199,0.35-0.416,0.35-0.648c0-0.182-0.052-0.315-0.155-0.401s-0.26-0.13-0.467-0.13
		c-0.502,0-1.054,0.203-1.658,0.608c-0.7,0.458-1.05,1.002-1.05,1.633c0,0.449,0.229,1.011,0.688,1.685
		c0.509,0.734,0.764,1.355,0.764,1.865c0,0.761-0.337,1.356-1.011,1.788c-0.414,0.268-0.885,0.401-1.411,0.401
		c-0.83,0-1.461-0.298-1.893-0.894c-0.302-0.423-0.453-0.924-0.453-1.503c0-0.674,0.172-1.239,0.518-1.697
		c0.225-0.303,0.458-0.453,0.7-0.453c0.217,0,0.324,0.086,0.324,0.26c0,0.068-0.039,0.172-0.117,0.311
		c-0.198,0.371-0.298,0.808-0.298,1.308c0,0.424,0.151,0.782,0.454,1.075c0.268,0.26,0.574,0.389,0.92,0.389
		c0.337,0,0.6-0.111,0.79-0.337c0.155-0.189,0.232-0.431,0.232-0.725c0-0.363-0.207-0.834-0.621-1.412
		c-0.57-0.795-0.855-1.517-0.855-2.164c0-0.863,0.471-1.628,1.412-2.293C306.424,110.305,307.391,109.986,308.41,109.986z"/>
	<path fill="#727272" d="M319.578,111.708c0.354-0.224,0.617-0.379,0.79-0.465c0.354-0.174,0.7-0.26,1.036-0.26
		c0.38,0,0.665,0.11,0.855,0.33s0.285,0.55,0.285,0.991c0,0.604-0.212,1.33-0.635,2.176c-0.657,1.339-1.451,2.393-2.384,3.162
		c-0.787,0.647-1.525,0.972-2.216,0.972c-0.38,0-0.755-0.147-1.127-0.44c-1.183,2.393-2.241,4.832-3.174,7.32
		c-0.199,0.596-0.432,0.893-0.7,0.893c-0.13,0-0.259-0.086-0.389-0.259c-0.095-0.12-0.143-0.254-0.143-0.401
		c0-0.466,0.57-1.981,1.71-4.547c1.763-3.956,3.434-7.243,5.015-9.86c0.327-0.552,0.548-0.933,0.66-1.14
		c0.303-0.562,0.597-0.842,0.881-0.842c0.294,0,0.44,0.177,0.44,0.531c0,0.199-0.104,0.466-0.311,0.803
		C319.924,111.104,319.725,111.449,319.578,111.708z M316.663,117.086c0.19,0.198,0.427,0.297,0.712,0.297
		c0.804,0,1.693-0.713,2.669-2.138c0.363-0.526,0.651-1.066,0.868-1.619c0.173-0.44,0.26-0.772,0.26-0.998
		c0-0.155-0.037-0.271-0.111-0.349c-0.073-0.078-0.187-0.117-0.342-0.117c-0.406,0-0.903,0.28-1.49,0.842
		c-0.562,0.545-1.102,1.309-1.619,2.294C317.133,116.204,316.818,116.801,316.663,117.086z"/>
	<path fill="#727272" d="M326.651,116.45c-0.285,0.502-0.565,0.925-0.842,1.27c-0.544,0.675-1.084,1.011-1.62,1.011
		c-0.466,0-0.828-0.22-1.088-0.66c-0.164-0.285-0.246-0.622-0.246-1.011c0-0.959,0.302-2.017,0.907-3.175
		c0.674-1.286,1.485-2.275,2.436-2.966c0.622-0.45,1.222-0.674,1.801-0.674c0.363,0,0.664,0.111,0.907,0.337
		c0.207,0.199,0.311,0.423,0.311,0.673c0,0.19-0.073,0.453-0.221,0.791c0.13,0.182,0.195,0.341,0.195,0.479
		c0,0.182-0.121,0.479-0.363,0.895c-0.25,0.424-0.501,0.984-0.751,1.685c-0.269,0.743-0.401,1.339-0.401,1.787
		c0,0.363,0.107,0.661,0.323,0.895c0.061,0.06,0.237,0.159,0.531,0.298c0.216,0.104,0.323,0.285,0.323,0.544
		c0,0.164-0.06,0.298-0.181,0.401c-0.13,0.112-0.281,0.169-0.453,0.169c-0.467,0-0.869-0.207-1.205-0.622
		c-0.276-0.337-0.415-0.76-0.415-1.27C326.6,117.132,326.617,116.848,326.651,116.45z M328.271,112.188
		c-0.104-0.189-0.217-0.33-0.337-0.421c-0.121-0.09-0.251-0.136-0.39-0.136c-0.656,0-1.368,0.574-2.137,1.724
		c-0.847,1.27-1.271,2.345-1.271,3.226c0,0.216,0.042,0.38,0.124,0.492c0.082,0.111,0.204,0.169,0.369,0.169
		c0.414,0,0.897-0.44,1.451-1.322c0.311-0.483,0.695-1.196,1.152-2.138c0.303-0.613,0.522-1.02,0.661-1.218
		C327.964,112.46,328.09,112.335,328.271,112.188z"/>
	<path fill="#727272" d="M332.067,114.325c0.846-0.906,1.822-1.792,2.928-2.655c0.397-0.312,0.82-0.601,1.27-0.868
		c0.225-0.13,0.367-0.194,0.428-0.194c0.13,0,0.259,0.095,0.389,0.285c0.077,0.104,0.117,0.199,0.117,0.285
		c0,0.155-0.165,0.367-0.493,0.634c-0.881,0.7-1.321,1.227-1.321,1.581c0,0.199,0.112,0.299,0.337,0.299
		c0.372,0,1.011-0.307,1.918-0.92c0.155-0.104,0.284-0.156,0.388-0.156c0.069,0,0.139,0.035,0.208,0.104
		c0.077,0.077,0.116,0.159,0.116,0.245c0,0.26-0.362,0.657-1.089,1.192c-0.76,0.57-1.48,0.855-2.163,0.855
		c-0.276,0-0.531-0.073-0.764-0.22c-0.198-0.122-0.298-0.338-0.298-0.648c0-0.216,0.09-0.462,0.271-0.738
		c-0.683,0.484-1.486,1.312-2.41,2.487c-0.535,0.725-1.066,1.619-1.594,2.682c-0.198,0.397-0.444,0.596-0.738,0.596
		c-0.319,0-0.479-0.15-0.479-0.453c0-0.294,0.25-1.08,0.751-2.358c0.742-1.899,1.52-3.373,2.332-4.417
		c0.501-0.648,0.92-0.972,1.257-0.972c0.112,0,0.216,0.034,0.311,0.104c0.112,0.086,0.168,0.193,0.168,0.323
		s-0.086,0.311-0.259,0.545c-0.035,0.043-0.263,0.331-0.687,0.867C332.572,113.319,332.274,113.825,332.067,114.325z"/>
	<path fill="#727272" d="M341.628,116.45c-0.284,0.502-0.565,0.925-0.842,1.27c-0.544,0.675-1.084,1.011-1.619,1.011
		c-0.466,0-0.829-0.22-1.089-0.66c-0.164-0.285-0.246-0.622-0.246-1.011c0-0.959,0.303-2.017,0.907-3.175
		c0.674-1.286,1.486-2.275,2.436-2.966c0.622-0.45,1.222-0.674,1.801-0.674c0.363,0,0.665,0.111,0.907,0.337
		c0.207,0.199,0.311,0.423,0.311,0.673c0,0.19-0.073,0.453-0.221,0.791c0.131,0.182,0.195,0.341,0.195,0.479
		c0,0.182-0.12,0.479-0.362,0.895c-0.251,0.424-0.502,0.984-0.752,1.685c-0.269,0.743-0.401,1.339-0.401,1.787
		c0,0.363,0.107,0.661,0.323,0.895c0.062,0.06,0.237,0.159,0.531,0.298c0.216,0.104,0.324,0.285,0.324,0.544
		c0,0.164-0.061,0.298-0.182,0.401c-0.13,0.112-0.28,0.169-0.453,0.169c-0.467,0-0.868-0.207-1.205-0.622
		c-0.276-0.337-0.415-0.76-0.415-1.27C341.576,117.132,341.594,116.848,341.628,116.45z M343.248,112.188
		c-0.104-0.189-0.217-0.33-0.337-0.421c-0.12-0.09-0.251-0.136-0.389-0.136c-0.656,0-1.369,0.574-2.138,1.724
		c-0.846,1.27-1.27,2.345-1.27,3.226c0,0.216,0.041,0.38,0.124,0.492c0.081,0.111,0.204,0.169,0.368,0.169
		c0.414,0,0.898-0.44,1.451-1.322c0.311-0.483,0.695-1.196,1.153-2.138c0.302-0.613,0.521-1.02,0.66-1.218
		C342.94,112.46,343.066,112.335,343.248,112.188z"/>
	<path fill="#727272" d="M357.875,116.618c-0.587,0.406-1.059,0.709-1.412,0.907c-0.812,0.467-1.517,0.7-2.112,0.7
		c-0.699,0-1.278-0.342-1.735-1.023c-0.328-0.492-0.492-1.059-0.492-1.697c0-1.779,0.776-3.853,2.331-6.219
		c1.442-2.186,3.114-4.068,5.015-5.648c1.555-1.296,2.889-1.943,4.003-1.943c0.562,0,1.02,0.237,1.373,0.712
		c0.269,0.363,0.402,0.79,0.402,1.283c0,1.503-0.735,3.062-2.203,4.677c-1.123,1.235-1.973,1.853-2.552,1.853
		c-0.13,0-0.259-0.052-0.39-0.156c-0.138-0.12-0.207-0.263-0.207-0.427c0-0.216,0.19-0.479,0.57-0.79
		c0.977-0.786,1.771-1.59,2.384-2.409c0.959-1.271,1.438-2.276,1.438-3.02c0-0.199-0.074-0.358-0.221-0.479
		c-0.139-0.112-0.307-0.168-0.505-0.168c-0.458,0-1.071,0.268-1.84,0.803c-1.606,1.132-3.191,2.717-4.755,4.755
		c-1.011,1.321-1.853,2.686-2.526,4.094c-0.587,1.235-0.881,2.246-0.881,3.032c0,0.311,0.1,0.604,0.298,0.881
		c0.269,0.371,0.618,0.557,1.05,0.557c0.612,0,1.369-0.324,2.268-0.972c1.122-0.812,1.926-1.464,2.409-1.956
		c0.406-0.414,0.712-0.622,0.92-0.622c0.146,0,0.269,0.057,0.362,0.169c0.121,0.146,0.182,0.328,0.182,0.544
		c0,0.241-0.146,0.561-0.44,0.959c-0.302,0.396-0.769,1.135-1.399,2.215c-0.725,1.235-1.396,2.574-2.008,4.017
		c-0.544,1.27-0.872,2.129-0.984,2.578c-0.095,0.381-0.204,0.652-0.324,0.815c-0.129,0.174-0.327,0.26-0.597,0.26
		c-0.224,0-0.397-0.077-0.518-0.232c-0.104-0.139-0.155-0.303-0.155-0.493c0-0.733,0.428-2.004,1.282-3.809
		c0.139-0.285,0.574-1.114,1.309-2.488C357.36,117.6,357.581,117.18,357.875,116.618z"/>
	<path fill="#727272" d="M364.275,114.325c0.846-0.906,1.822-1.792,2.928-2.655c0.397-0.312,0.819-0.601,1.27-0.868
		c0.225-0.13,0.366-0.194,0.428-0.194c0.129,0,0.259,0.095,0.389,0.285c0.077,0.104,0.116,0.199,0.116,0.285
		c0,0.155-0.164,0.367-0.492,0.634c-0.881,0.7-1.321,1.227-1.321,1.581c0,0.199,0.112,0.299,0.337,0.299
		c0.371,0,1.011-0.307,1.918-0.92c0.155-0.104,0.284-0.156,0.388-0.156c0.069,0,0.139,0.035,0.208,0.104
		c0.077,0.077,0.116,0.159,0.116,0.245c0,0.26-0.362,0.657-1.089,1.192c-0.76,0.57-1.48,0.855-2.163,0.855
		c-0.276,0-0.531-0.073-0.765-0.22c-0.198-0.122-0.298-0.338-0.298-0.648c0-0.216,0.091-0.462,0.272-0.738
		c-0.683,0.484-1.486,1.312-2.41,2.487c-0.535,0.725-1.066,1.619-1.594,2.682c-0.198,0.397-0.444,0.596-0.738,0.596
		c-0.32,0-0.479-0.15-0.479-0.453c0-0.294,0.251-1.08,0.752-2.358c0.742-1.899,1.52-3.373,2.332-4.417
		c0.501-0.648,0.92-0.972,1.257-0.972c0.112,0,0.216,0.034,0.311,0.104c0.112,0.086,0.168,0.193,0.168,0.323
		s-0.086,0.311-0.259,0.545c-0.035,0.043-0.263,0.331-0.687,0.867C364.78,113.319,364.482,113.825,364.275,114.325z"/>
	<path fill="#727272" d="M373.836,116.45c-0.284,0.502-0.565,0.925-0.842,1.27c-0.544,0.675-1.084,1.011-1.619,1.011
		c-0.467,0-0.829-0.22-1.089-0.66c-0.164-0.285-0.246-0.622-0.246-1.011c0-0.959,0.303-2.017,0.907-3.175
		c0.673-1.286,1.485-2.275,2.436-2.966c0.622-0.45,1.222-0.674,1.801-0.674c0.363,0,0.665,0.111,0.907,0.337
		c0.207,0.199,0.311,0.423,0.311,0.673c0,0.19-0.073,0.453-0.221,0.791c0.13,0.182,0.194,0.341,0.194,0.479
		c0,0.182-0.12,0.479-0.362,0.895c-0.25,0.424-0.501,0.984-0.751,1.685c-0.269,0.743-0.401,1.339-0.401,1.787
		c0,0.363,0.107,0.661,0.323,0.895c0.062,0.06,0.237,0.159,0.531,0.298c0.216,0.104,0.324,0.285,0.324,0.544
		c0,0.164-0.062,0.298-0.182,0.401c-0.13,0.112-0.281,0.169-0.453,0.169c-0.467,0-0.868-0.207-1.205-0.622
		c-0.276-0.337-0.415-0.76-0.415-1.27C373.784,117.132,373.802,116.848,373.836,116.45z M375.456,112.188
		c-0.104-0.189-0.217-0.33-0.337-0.421c-0.121-0.09-0.251-0.136-0.39-0.136c-0.656,0-1.368,0.574-2.137,1.724
		c-0.847,1.27-1.271,2.345-1.271,3.226c0,0.216,0.041,0.38,0.124,0.492c0.082,0.111,0.205,0.169,0.368,0.169
		c0.415,0,0.898-0.44,1.451-1.322c0.312-0.483,0.696-1.196,1.153-2.138c0.303-0.613,0.522-1.02,0.661-1.218
		C375.148,112.46,375.274,112.335,375.456,112.188z"/>
	<path fill="#727272" d="M379.29,114.145c0.113-0.104,0.221-0.208,0.325-0.312c1.805-1.762,3.014-2.643,3.627-2.643
		c0.337,0,0.505,0.187,0.505,0.558c0,0.259-0.151,0.565-0.453,0.919c-1.649,1.927-2.475,3.624-2.475,5.092
		c0,0.475,0.13,0.929,0.389,1.36c0.121,0.198,0.181,0.354,0.181,0.467c0,0.104-0.052,0.203-0.155,0.298
		c-0.112,0.121-0.246,0.182-0.401,0.182c-0.354,0-0.651-0.225-0.894-0.674c-0.233-0.423-0.351-0.938-0.351-1.541
		c0-1.167,0.441-2.458,1.322-3.874c-1.176,0.751-2.268,2.081-3.278,3.989c-0.259,0.458-0.534,0.688-0.829,0.688
		c-0.146,0-0.269-0.052-0.362-0.155c-0.121-0.122-0.182-0.277-0.182-0.468c0-0.466,0.531-1.688,1.594-3.666
		c0.57-1.07,1.02-1.848,1.348-2.332c0.327-0.475,0.608-0.713,0.842-0.713c0.113,0,0.221,0.052,0.324,0.156
		c0.12,0.121,0.181,0.26,0.181,0.415c0,0.189-0.125,0.462-0.375,0.815C379.809,113.233,379.515,113.712,379.29,114.145z"/>
	<path fill="#727272" d="M400.642,103.845c-1.728,0.268-3.33,0.608-4.807,1.023c-0.311,0.112-0.553,0.169-0.726,0.169
		c-0.198,0-0.367-0.092-0.506-0.273c-0.086-0.104-0.129-0.224-0.129-0.362c0-0.371,0.268-0.644,0.804-0.815
		c1.434-0.433,3.122-0.83,5.065-1.192c2.436-0.44,4.776-0.66,7.021-0.66c0.761,0,1.27,0.047,1.529,0.142
		c0.242,0.086,0.363,0.251,0.363,0.492c0,0.406-0.299,0.644-0.895,0.713c-0.519,0.052-1.3,0.091-2.346,0.116
		c-2.082,0.069-3.506,0.199-4.274,0.39c0.216,0.086,0.323,0.22,0.323,0.401c0,0.19-0.139,0.487-0.414,0.894
		c-1.642,2.401-3.209,5.126-4.703,8.175c-1.141,2.314-1.974,4.371-2.501,6.167c-0.12,0.544-0.327,0.816-0.621,0.816
		c-0.269,0-0.492-0.138-0.674-0.415c-0.12-0.181-0.182-0.37-0.182-0.569c0-0.795,0.756-2.729,2.268-5.804
		c0.968-1.979,1.861-3.646,2.682-5.002c0.328-0.553,1.118-1.835,2.371-3.848L400.642,103.845z"/>
	<path fill="#727272" d="M405.94,116.606c-0.372,0.518-0.699,0.932-0.984,1.244c-0.501,0.552-0.998,0.828-1.49,0.828
		c-0.424,0-0.752-0.189-0.984-0.569c-0.165-0.269-0.246-0.588-0.246-0.959c0-1.114,0.475-2.393,1.425-3.835
		c0.44-0.674,0.877-1.188,1.309-1.542c0.337-0.285,0.612-0.428,0.829-0.428c0.121,0,0.233,0.052,0.337,0.155
		c0.086,0.096,0.13,0.19,0.13,0.286c0,0.163-0.16,0.431-0.479,0.803c-0.717,0.854-1.261,1.641-1.633,2.358
		c-0.432,0.837-0.647,1.494-0.647,1.969c0,0.121,0.027,0.214,0.085,0.279c0.056,0.064,0.135,0.097,0.238,0.097
		c0.44,0,1.054-0.631,1.84-1.892c0.406-0.656,0.756-1.383,1.05-2.177c0.155-0.432,0.358-0.816,0.608-1.153
		c0.242-0.303,0.48-0.453,0.713-0.453c0.13,0,0.246,0.056,0.35,0.169c0.113,0.12,0.169,0.254,0.169,0.4
		c0,0.312-0.298,1.012-0.894,2.1c-0.406,0.751-0.609,1.377-0.609,1.878c0,0.536,0.143,0.994,0.427,1.373
		c0.079,0.104,0.315,0.269,0.713,0.492c0.19,0.113,0.285,0.294,0.285,0.545c0,0.155-0.066,0.289-0.2,0.401
		c-0.135,0.112-0.296,0.169-0.486,0.169c-0.432,0-0.825-0.173-1.179-0.519c-0.32-0.311-0.522-0.76-0.608-1.348
		C405.988,117.202,405.966,116.977,405.94,116.606z"/>
	<path fill="#727272" d="M411.576,114.325c0.847-0.906,1.823-1.792,2.928-2.655c0.397-0.312,0.82-0.601,1.271-0.868
		c0.224-0.13,0.366-0.194,0.427-0.194c0.13,0,0.26,0.095,0.389,0.285c0.078,0.104,0.116,0.199,0.116,0.285
		c0,0.155-0.164,0.367-0.492,0.634c-0.881,0.7-1.321,1.227-1.321,1.581c0,0.199,0.113,0.299,0.337,0.299
		c0.372,0,1.011-0.307,1.917-0.92c0.156-0.104,0.285-0.156,0.389-0.156c0.069,0,0.139,0.035,0.207,0.104
		c0.079,0.077,0.117,0.159,0.117,0.245c0,0.26-0.362,0.657-1.088,1.192c-0.761,0.57-1.481,0.855-2.164,0.855
		c-0.276,0-0.531-0.073-0.765-0.22c-0.198-0.122-0.298-0.338-0.298-0.648c0-0.216,0.091-0.462,0.272-0.738
		c-0.683,0.484-1.485,1.312-2.409,2.487c-0.536,0.725-1.066,1.619-1.594,2.682c-0.199,0.397-0.445,0.596-0.739,0.596
		c-0.319,0-0.479-0.15-0.479-0.453c0-0.294,0.25-1.08,0.751-2.358c0.742-1.899,1.521-3.373,2.332-4.417
		c0.501-0.648,0.92-0.972,1.257-0.972c0.112,0,0.216,0.034,0.311,0.104c0.113,0.086,0.169,0.193,0.169,0.323
		s-0.087,0.311-0.259,0.545c-0.035,0.043-0.264,0.331-0.687,0.867C412.081,113.319,411.783,113.825,411.576,114.325z"/>
	<path fill="#727272" d="M420.723,110.827c0.146,0,0.268,0.058,0.363,0.169c0.068,0.096,0.104,0.189,0.104,0.285
		c0,0.155-0.126,0.415-0.376,0.777c-0.897,1.391-1.538,2.535-1.918,3.434c-0.405,0.924-0.764,1.874-1.074,2.851
		c-0.139,0.431-0.354,0.647-0.648,0.647c-0.172,0-0.311-0.069-0.414-0.208c-0.095-0.112-0.143-0.232-0.143-0.363
		c0-0.258,0.275-1.122,0.829-2.59c0.432-1.158,1.131-2.437,2.099-3.835c0.311-0.458,0.544-0.765,0.699-0.92
		C420.398,110.909,420.559,110.827,420.723,110.827z M423.185,106.021c0.389,0,0.583,0.199,0.583,0.597
		c0,0.363-0.19,0.765-0.57,1.204c-0.362,0.424-0.712,0.636-1.05,0.636c-0.164,0-0.298-0.061-0.401-0.182
		c-0.104-0.112-0.155-0.251-0.155-0.414c0-0.415,0.229-0.856,0.687-1.321C422.614,106.194,422.916,106.021,423.185,106.021z"/>
	<path fill="#727272" d="M426.773,109.986c0.535,0,0.937,0.095,1.205,0.284c0.268,0.189,0.401,0.479,0.401,0.868
		c0,0.51-0.19,1.002-0.57,1.477c-0.362,0.449-0.907,0.812-1.632,1.089c-0.398,0.146-0.73,0.22-0.998,0.22
		c-0.363,0-0.544-0.16-0.544-0.479c0-0.215,0.104-0.38,0.311-0.492c0.052-0.025,0.346-0.099,0.881-0.22
		c0.319-0.069,0.613-0.221,0.881-0.453c0.233-0.199,0.35-0.416,0.35-0.648c0-0.182-0.052-0.315-0.155-0.401s-0.259-0.13-0.466-0.13
		c-0.502,0-1.054,0.203-1.658,0.608c-0.7,0.458-1.05,1.002-1.05,1.633c0,0.449,0.229,1.011,0.687,1.685
		c0.51,0.734,0.765,1.355,0.765,1.865c0,0.761-0.337,1.356-1.011,1.788c-0.415,0.268-0.885,0.401-1.412,0.401
		c-0.829,0-1.46-0.298-1.892-0.894c-0.302-0.423-0.453-0.924-0.453-1.503c0-0.674,0.173-1.239,0.519-1.697
		c0.224-0.303,0.457-0.453,0.699-0.453c0.216,0,0.323,0.086,0.323,0.26c0,0.068-0.038,0.172-0.116,0.311
		c-0.198,0.371-0.298,0.808-0.298,1.308c0,0.424,0.151,0.782,0.453,1.075c0.269,0.26,0.574,0.389,0.92,0.389
		c0.337,0,0.6-0.111,0.79-0.337c0.155-0.189,0.234-0.431,0.234-0.725c0-0.363-0.208-0.834-0.623-1.412
		c-0.569-0.795-0.854-1.517-0.854-2.164c0-0.863,0.471-1.628,1.412-2.293C424.787,110.305,425.754,109.986,426.773,109.986z"/>
	<path fill="#727272" d="M429.805,114.273c0.726-0.76,1.364-1.355,1.917-1.787c0.839-0.647,1.399-0.972,1.685-0.972
		c0.139,0,0.259,0.052,0.362,0.155c0.096,0.095,0.144,0.199,0.144,0.311c0,0.165-0.151,0.433-0.454,0.804
		c-0.466,0.587-0.79,1.088-0.972,1.503c2.021-2.03,3.404-3.044,4.146-3.044c0.156,0,0.29,0.046,0.402,0.142
		c0.121,0.104,0.181,0.233,0.181,0.389c0,0.241-0.185,0.553-0.557,0.933c-1.633,1.685-2.448,3.065-2.448,4.146
		c0,0.44,0.077,0.756,0.233,0.945l0.336,0.428c0.069,0.077,0.104,0.177,0.104,0.297c0,0.139-0.056,0.269-0.168,0.39
		c-0.13,0.138-0.275,0.207-0.44,0.207c-0.285,0-0.548-0.181-0.79-0.544c-0.294-0.432-0.44-0.941-0.44-1.529
		c0-0.785,0.224-1.58,0.673-2.384c0.156-0.285,0.415-0.664,0.778-1.14c-0.734,0.552-1.481,1.312-2.241,2.28
		c-0.519,0.656-0.985,1.391-1.399,2.203c-0.199,0.389-0.432,0.582-0.7,0.582c-0.294,0-0.44-0.164-0.44-0.492
		c0-0.354,0.242-1.084,0.726-2.189c0.276-0.631,0.617-1.296,1.023-1.995c-1.477,1.141-2.587,2.687-3.329,4.639
		c-0.182,0.432-0.424,0.647-0.727,0.647c-0.138,0-0.25-0.052-0.336-0.155c-0.095-0.104-0.143-0.229-0.143-0.376
		c0-0.51,0.285-1.43,0.855-2.76c0.596-1.407,1.269-2.673,2.021-3.796c0.519-0.785,0.92-1.179,1.205-1.179
		c0.259,0,0.389,0.138,0.389,0.414c0,0.121-0.159,0.423-0.479,0.907C430.357,113.159,429.986,113.833,429.805,114.273z"/>
	<path fill="#727272" d="M441.996,110.231c0.709,0,1.062,0.433,1.062,1.296c0,1.148-0.531,2.604-1.594,4.366
		c-1.157,1.909-2.276,2.863-3.355,2.863c-0.501,0-0.868-0.234-1.101-0.699c-0.121-0.234-0.183-0.514-0.183-0.843
		c0-1.105,0.381-2.306,1.141-3.602c0.708-1.2,1.542-2.133,2.501-2.799C441.028,110.427,441.538,110.231,441.996,110.231z
		 M440.648,115.129c-0.216-0.173-0.324-0.307-0.324-0.401c0-0.069,0.139-0.26,0.415-0.57c0.777-0.872,1.166-1.575,1.166-2.111
		c0-0.069-0.022-0.139-0.064-0.207c-0.069-0.131-0.178-0.195-0.324-0.195c-0.276,0-0.683,0.268-1.218,0.804
		c-0.69,0.691-1.218,1.403-1.581,2.138c-0.423,0.838-0.635,1.533-0.635,2.085c0,0.147,0.039,0.277,0.117,0.39
		c0.112,0.155,0.255,0.233,0.427,0.233c0.415,0,0.859-0.312,1.335-0.934c0.207-0.259,0.376-0.526,0.506-0.803
		C440.597,115.279,440.658,115.138,440.648,115.129z"/>
</g>
</svg>
