<?xml version="1.0" encoding="utf-8"?>
<!-- Generator: Adobe Illustrator 16.0.0, SVG Export Plug-In . SVG Version: 6.00 Build 0)  -->
<!DOCTYPE svg PUBLIC "-//W3C//DTD SVG 1.1//EN" "http://www.w3.org/Graphics/SVG/1.1/DTD/svg11.dtd">
<svg version="1.1" id="RAW_ICONS_-_SQUARE__x2F__ROUNDED__x2F__CIRCLE"
	 xmlns="http://www.w3.org/2000/svg" xmlns:xlink="http://www.w3.org/1999/xlink" x="0px" y="0px" width="150px" height="45px"
	 viewBox="-29.5 -5 150 45" enable-background="new -29.5 -5 150 45" xml:space="preserve">
<path fill="#0A457D" d="M106.446,10.368c0.015,0.308,0.022,0.613,0.022,0.925c0,9.481-7.22,20.416-20.417,20.416
	c-4.055,0-7.822-1.188-10.999-3.223c0.562,0.062,1.134,0.101,1.71,0.101c3.365,0,6.456-1.144,8.912-3.07
	c-3.136-0.061-5.79-2.135-6.699-4.983c0.437,0.082,0.887,0.128,1.348,0.128c0.657,0,1.292-0.089,1.89-0.254
	c-3.278-0.661-5.755-3.559-5.755-7.034c0-0.031,0-0.06,0-0.089c0.971,0.538,2.075,0.857,3.253,0.895
	c-1.928-1.283-3.194-3.482-3.194-5.971c0-1.315,0.356-2.549,0.974-3.608c3.536,4.342,8.827,7.198,14.786,7.499
	c-0.12-0.526-0.184-1.073-0.184-1.636c0-3.962,3.212-7.172,7.173-7.172c2.064,0,3.929,0.871,5.239,2.262
	c1.632-0.321,3.171-0.918,4.555-1.744c-0.534,1.68-1.672,3.084-3.155,3.972c1.455-0.171,2.837-0.56,4.121-1.127
	C109.066,8.091,107.85,9.356,106.446,10.368z"/>
<path fill="#0A457D" d="M-2.029,17.511h-4.262c0,6.809,0,15.196,0,15.196h-6.315c0,0,0-8.301,0-15.196h-3.003v-5.368h3.003V8.668
	c0-2.488,1.181-6.375,6.374-6.375l4.678,0.018v5.213c0,0-2.844,0-3.395,0c-0.553,0-1.34,0.275-1.34,1.463v3.156h4.814L-2.029,17.511
	z"/>
</svg>
